<?xml version="1.0" encoding="UTF-8"?>
<svg version="1.1" xmlns="http://www.w3.org/2000/svg" width="500" height="500">
<path d="M0 0 C31.2333809 5.47154118 60.30537786 23.45544318 83 45 C84.36949019 46.17312946 85.74413102 47.34028582 87.125 48.5 C106.36590085 65.36500014 120.01835291 88.71335673 130 112 C130.45656982 113.03809814 130.45656982 113.03809814 130.92236328 114.09716797 C131.3494458 115.12994873 131.3494458 115.12994873 131.78515625 116.18359375 C132.04304932 116.7964624 132.30094238 117.40933105 132.56665039 118.04077148 C133.14678535 120.66363516 132.70921774 122.41601428 132 125 C130.711236 126.78654194 130.711236 126.78654194 129.0459137 128.44856262 C128.4163678 129.0864975 127.7868219 129.72443237 127.13819885 130.38169861 C126.44363083 131.06502762 125.74906281 131.74835663 125.03344727 132.45239258 C124.30499603 133.1846405 123.5765448 133.91688843 122.82601929 134.67132568 C120.41581166 137.08894266 117.99150532 139.49185922 115.56640625 141.89453125 C113.89037953 143.56817422 112.21509094 145.24255667 110.54051208 146.91764832 C107.03014671 150.42488524 103.51316132 153.92529789 99.9909668 157.4206543 C95.46655487 161.9110343 90.95547328 166.41452067 86.44880772 170.92270374 C82.9914122 174.37955668 79.52883851 177.83118205 76.06446648 181.2810421 C74.39861587 182.94051016 72.73398986 184.60120843 71.07058907 186.2631321 C68.75070117 188.57870549 66.42436174 190.88758495 64.09594727 193.19458008 C63.40340347 193.88803024 62.71085968 194.58148041 61.99732971 195.29594421 C61.36496399 195.91977997 60.73259827 196.54361572 60.08106995 197.18635559 C59.53113656 197.73293729 58.98120317 198.27951899 58.41460514 198.84266376 C57 200 57 200 55 200 C50.11887449 185.11711482 46.04761737 169.99886135 41.88005447 154.90532303 C40.80749168 151.02345289 39.73163786 147.14249519 38.65600586 143.26147461 C37.02883004 137.38944004 35.40249685 131.51717335 33.77727032 125.64459896 C28.88121583 107.95329779 23.97483181 90.26486344 19.06458855 72.57749557 C17.41293514 66.62775793 15.76266039 60.67764032 14.11354542 54.7271986 C13.07364285 50.97594348 12.0326322 47.22499647 10.99135399 43.474123 C10.51032669 41.7405299 10.0297368 40.00681536 9.54964638 38.27296257 C8.88272473 35.86465335 8.21430241 33.45676699 7.54516602 31.04907227 C7.33555646 30.2929877 7.1259469 29.53690313 6.90998554 28.75790691 C5.83463261 24.90221169 4.72505943 21.06030905 3.56246948 17.22994995 C3.32937293 16.45802024 3.09627638 15.68609053 2.85611629 14.890769 C2.41371908 13.43377152 1.96548446 11.97852805 1.51022434 10.52549839 C0.41452484 6.91683294 -0.25340127 3.77640537 0 0 Z " fill="#58D921" transform="translate(295,67)"/>
<path d="M0 0 C0.82140822 3.78979199 1.63045801 7.58212497 2.4375 11.375 C2.78264648 12.96634766 2.78264648 12.96634766 3.13476562 14.58984375 C12.82190676 60.35807576 2.99019284 110.63602277 -22 150 C-24.77933952 154.23169698 -27.71790293 158.32521912 -30.77685547 162.35839844 C-31.99785488 163.99712101 -33.15828255 165.66800752 -34.31640625 167.3515625 C-35.05761719 168.36992187 -35.79882812 169.38828125 -36.5625 170.4375 C-37.52349609 171.79681641 -37.52349609 171.79681641 -38.50390625 173.18359375 C-41.85951363 175.62546766 -43.59199699 174.95589786 -47.55776215 174.41900063 C-51.28281631 173.77991462 -54.88907336 172.8572483 -58.52636719 171.83862305 C-59.72596573 171.51154358 -59.72596573 171.51154358 -60.94979858 171.17785645 C-63.5673389 170.46236444 -66.18209053 169.73721125 -68.796875 169.01171875 C-70.63602159 168.5065263 -72.4753188 168.00188185 -74.3147583 167.49775696 C-78.16216275 166.44184684 -82.00831433 165.38153167 -85.85351562 164.31762695 C-90.74799076 162.9634476 -95.6445112 161.61686307 -100.54188156 160.27319622 C-105.25261414 158.98037127 -109.96227765 157.6836719 -114.671875 156.38671875 C-115.55372215 156.14421576 -116.43556931 155.90171276 -117.3441391 155.65186119 C-127.27928301 152.91679533 -137.17511824 150.11247788 -147 147 C-145.37256137 142.89523982 -142.41960533 140.14065493 -139.34411621 137.09014893 C-138.75987051 136.50278324 -138.1756248 135.91541755 -137.57367468 135.3102529 C-135.61309919 133.34169471 -133.64544577 131.38036877 -131.67773438 129.41894531 C-130.27141968 128.00992095 -128.86553091 126.60047137 -127.46003723 125.19062805 C-123.64044438 121.36190786 -119.81454049 117.53955259 -115.98721504 113.71856403 C-111.98795683 109.724362 -107.99357223 105.72529102 -103.99841309 101.72698975 C-97.29013564 95.01507239 -90.57764877 88.30738645 -83.86279297 81.60205078 C-76.08938545 73.8395367 -68.3232213 66.06983171 -60.56076384 58.29636884 C-53.90370025 51.63024367 -47.24276498 44.96800602 -40.57854891 38.30903125 C-36.59473586 34.32834298 -32.61230246 30.34629977 -28.63334656 26.36075592 C-24.89507327 22.61672589 -21.1519809 18.87758294 -17.40503502 15.14223289 C-16.02700156 13.76685462 -14.65068695 12.38975182 -13.27617836 11.01085091 C-11.40731238 9.13656203 -9.53246471 7.26847613 -7.65588379 5.4019165 C-7.10666811 4.84823938 -6.55745242 4.29456225 -5.99159384 3.72410703 C-2.22830046 0 -2.22830046 0 0 0 Z " fill="#59D921" transform="translate(432,200)"/>
<path d="M0 0 C10.08011866 2.04255489 19.99065736 4.51751409 29.90625 7.23828125 C31.40286481 7.6459324 32.89957109 8.05324788 34.3963623 8.46025085 C38.30792 9.5248218 42.21824004 10.59386857 46.1282959 11.66394043 C50.04051669 12.73376539 53.95389899 13.799323 57.8671875 14.86523438 C64.56629935 16.69057383 71.26450358 18.51921256 77.96214294 20.34994698 C84.38034153 22.10424709 90.7994222 23.85530526 97.21875 25.60546875 C98.95768353 26.07966668 100.69661598 26.55386857 102.43554688 27.02807617 C103.61181641 27.34881104 104.78808594 27.6695459 106 28 C104.3728341 32.10941887 101.4123638 34.86075275 98.33065796 37.90985107 C97.74500112 38.49721676 97.15934428 39.08458245 96.55594027 39.6897471 C94.59068218 41.65830158 92.61835708 43.61961879 90.64599609 45.58105469 C89.23642249 46.99006421 87.82728901 48.39951416 86.41856384 49.80937195 C82.59062567 53.63788476 78.75654524 57.46019285 74.92135191 61.28143597 C70.91524253 65.27505651 66.9147831 69.27432838 62.91372681 73.27301025 C55.3352343 80.84528257 47.75165721 88.41244151 40.16625082 95.97778726 C31.53123426 104.59046162 22.90188511 113.20880477 14.27301288 121.82763433 C-3.47834865 139.55808164 -21.23683351 157.28138002 -39 175 C-39.66 174.67 -40.32 174.34 -41 174 C-41.77168595 171.2659408 -42.4181016 168.5878826 -43 165.8125 C-43.2475 164.70745117 -43.2475 164.70745117 -43.5 163.58007812 C-46.27323324 150.76470733 -47.41197859 138.19809311 -47.375 125.125 C-47.37412384 124.36198578 -47.37324768 123.59897156 -47.37234497 122.81283569 C-47.20462521 78.24987023 -30.85053681 32.7235408 0 0 Z " fill="#58D921" transform="translate(109,125)"/>
<path d="M0 0 C11.84423964 2.69554141 23.56388438 5.71730024 35.265625 8.97265625 C37.00407934 9.45362212 38.7426173 9.93428587 40.48123169 10.41467285 C44.16401241 11.43287777 47.84624028 12.45304802 51.52801514 13.47488403 C57.32331471 15.08330441 63.11979978 16.68742151 68.91650391 18.29077148 C74.83946909 19.92922915 80.76236952 21.56791799 86.68484497 23.20814514 C99.18547681 26.6700143 111.6887647 30.12206504 124.1953125 33.5625 C124.98016525 33.77842741 125.76501801 33.99435482 126.57365417 34.21682549 C133.24556956 36.05230992 139.91770799 37.88698276 146.58996582 39.72122192 C163.73928512 44.43600331 180.87842029 49.18530491 198 54 C195.73892493 60.14868176 191.85807841 62.74797695 186.73046875 66.67285156 C184.91278859 68.06688505 183.11312269 69.48245926 181.3125 70.8984375 C148.17520076 96.66818412 108.68647542 110.20287005 66.75 110.25 C66.04767242 110.25133942 65.34534485 110.25267883 64.62173462 110.25405884 C55.58112768 110.25033033 46.65388688 109.95368399 37.6875 108.6875 C36.83575195 108.56987305 35.98400391 108.45224609 35.10644531 108.33105469 C28.47344221 107.25087801 28.47344221 107.25087801 26 104 C25.05441284 101.3624115 25.05441284 101.3624115 24.24169922 98.14038086 C23.93034531 96.92792191 23.61899139 95.71546295 23.29820251 94.46626282 C22.96686741 93.13249705 22.63570054 91.79868948 22.3046875 90.46484375 C21.95286471 89.0802165 21.60006769 87.69583648 21.24635315 86.31169128 C20.30492709 82.6177629 19.37588066 78.9208258 18.44916916 75.22318268 C17.49565053 71.42736573 16.53106506 67.63436917 15.56665039 63.84130859 C15.18346612 62.33380656 14.8003026 60.82629925 14.41716003 59.31878662 C14.22870199 58.5773214 14.04024395 57.83585617 13.84607506 57.0719223 C13.27851788 54.83665545 12.71240949 52.60102617 12.14668274 50.36529541 C10.10383896 42.29741838 8.03191564 34.23853438 5.87890625 26.19921875 C5.55146423 24.97630379 5.55146423 24.97630379 5.21740723 23.72868347 C4.44169827 20.83982653 3.6631222 17.95181163 2.87567139 15.06613159 C2.37038532 13.2143805 1.87054836 11.36114496 1.37109375 9.5078125 C1.10224365 8.52441895 0.83339355 7.54102539 0.55639648 6.52783203 C0 4 0 4 0 0 Z " fill="#59D921" transform="translate(184,328)"/>
<path d="M0 0 C3.57502721 12.28884048 6.99986398 24.59750419 10.12265015 37.00897217 C11.28264385 41.61497723 12.45597614 46.21758765 13.62890625 50.8203125 C13.88843582 51.83904449 14.14796539 52.85777649 14.4153595 53.90737915 C17.92888838 67.67325277 21.52180664 81.41853285 25.11064911 95.16491699 C25.6869044 97.3727181 26.26274284 99.5806275 26.83843994 101.78857422 C30.91200642 117.411167 35.0011107 133.02941892 39.13630867 148.6358223 C40.2632771 152.89114159 41.387363 157.14722368 42.51163006 161.40325737 C43.5737638 165.42203104 44.6415365 169.4392523 45.71356678 173.45539665 C46.5247224 176.50026051 47.32809427 179.5471796 48.1328125 182.59375 C48.42562607 183.68309845 48.71843964 184.7724469 49.02012634 185.89480591 C49.28305984 186.8956723 49.54599335 187.8965387 49.81689453 188.92773438 C50.04684113 189.79217163 50.27678772 190.65660889 50.51370239 191.54724121 C51.01845308 194.09307253 51.08768029 196.4114955 51 199 C22.27543791 192.57679739 -4.25706321 176.88790286 -25.7265625 157.0859375 C-27.8389424 155.1477745 -29.99998072 153.28976729 -32.1875 151.4375 C-36.19545111 147.9245548 -39.62473969 144.11862122 -43 140 C-43.8353125 138.99066406 -44.670625 137.98132813 -45.53125 136.94140625 C-58.8955653 120.53000802 -72.08555568 100.53970205 -78 80 C-77.60729455 76.1999131 -76.73437174 74.23456536 -74.0459137 71.55143738 C-73.4163678 70.9135025 -72.7868219 70.27556763 -72.13819885 69.61830139 C-71.44363083 68.93497238 -70.74906281 68.25164337 -70.03344727 67.54760742 C-69.30499603 66.8153595 -68.5765448 66.08311157 -67.82601929 65.32867432 C-65.41581166 62.91105734 -62.99150532 60.50814078 -60.56640625 58.10546875 C-58.89037953 56.43182578 -57.21509094 54.75744333 -55.54051208 53.08235168 C-52.03014671 49.57511476 -48.51316132 46.07470211 -44.9909668 42.5793457 C-40.46655487 38.0889657 -35.95547328 33.58547933 -31.44880772 29.07729626 C-27.9914122 25.62044332 -24.52883851 22.16881795 -21.06446648 18.7189579 C-19.39861587 17.05948984 -17.73398986 15.39879157 -16.07058907 13.7368679 C-13.75070117 11.42129451 -11.42436174 9.11241505 -9.09594727 6.80541992 C-8.40340347 6.11196976 -7.71085968 5.41851959 -6.99732971 4.70405579 C-6.36496399 4.08022003 -5.73259827 3.45638428 -5.08106995 2.81364441 C-4.25616987 1.99377186 -4.25616987 1.99377186 -3.41460514 1.15733624 C-2 0 -2 0 0 0 Z " fill="#59DA21" transform="translate(150,233)"/>
<path d="M0 0 C0.7566394 -0.00208466 1.51327881 -0.00416931 2.29284668 -0.00631714 C29.19161497 0.00209193 29.19161497 0.00209193 33.99447632 3.51322937 C36.02303918 6.13045514 36.61528616 8.68921349 37.48706055 11.88061523 C37.6697197 12.5383342 37.85237885 13.19605316 38.04057312 13.873703 C38.64462984 16.05783959 39.23433881 18.24558978 39.82421875 20.43359375 C40.24825214 21.97673897 40.67322167 23.51962723 41.09907532 25.06227112 C42.22434009 29.1475988 43.33773249 33.23606844 44.44842529 37.32537842 C45.76707579 42.17280187 47.09877698 47.01664895 48.42881966 51.86095619 C49.51391242 55.8134885 50.5974737 59.76641938 51.67672729 63.72055054 C53.69441997 71.10335586 55.7373697 78.47686064 57.86572266 85.82861328 C58.05574388 86.48611226 58.24576509 87.14361124 58.44154453 87.82103443 C59.32574333 90.8761972 60.21685514 93.92909678 61.11784363 96.97935486 C61.42547134 98.0355452 61.73309906 99.09173553 62.05004883 100.17993164 C62.31956863 101.09295547 62.58908844 102.00597931 62.86677551 102.94667053 C63.4375 105.375 63.4375 105.375 63.4375 109.375 C58.17538982 108.72774721 53.20107985 107.62849102 48.08959961 106.23632812 C47.27984775 106.01930992 46.47009588 105.80229172 45.63580608 105.5786972 C42.95273583 104.85850888 40.27129665 104.13243493 37.58984375 103.40625 C35.68338627 102.89306666 33.77683928 102.38021577 31.87020874 101.86767578 C26.76168408 100.49318981 21.65460575 99.11340108 16.54782486 97.73245239 C12.31105468 96.58746996 8.07344115 95.44562645 3.83583736 94.30373383 C-23.69826647 86.88339225 -51.2123492 79.39195314 -78.70581055 71.82250977 C-96.62778414 66.88999153 -114.57369808 62.05817107 -132.5625 57.375 C-132.5625 53.375 -132.5625 53.375 -130.46484375 50.96484375 C-105.04216705 28.22176407 -75.83033387 12.36211515 -42.5625 4.375 C-41.1688623 4.03831299 -41.1688623 4.03831299 -39.74707031 3.69482422 C-26.54035362 0.6619811 -13.49262688 0.01507498 0 0 Z " fill="#59D921" transform="translate(250.5625,61.625)"/>
<path d="M0 0 C2.04298506 3.61663572 3.07242346 7.44940446 4.125 11.4375 C4.30675781 12.09298828 4.48851562 12.74847656 4.67578125 13.42382812 C5.63789367 17.0299412 6.21577927 20.26701871 6 24 C-3.01495972 21.61290268 -11.47791473 18.80840441 -20 15 C-17.07175348 14.02391783 -15.04386724 13.91773332 -12 14 C-12 14.99 -12 15.98 -12 17 C-10.9275 16.979375 -9.855 16.95875 -8.75 16.9375 C-5.85209576 16.9857984 -3.71387859 17.13155885 -1 18 C-0.20046862 14.71303767 0.09658936 13.28976808 -1 10 C-0.69208308 8.328451 -0.35613097 6.66194453 0 5 C0.0370279 3.3337447 0.04759962 1.66598681 0 0 Z " fill="#6CDB37" transform="translate(195,408)"/>
<path d="M0 0 C0.66 0.33 1.32 0.66 2 1 C-10.54 13.54 -23.08 26.08 -36 39 C-36 38.01 -36 37.02 -36 36 C-34.66666667 34.66666667 -33.33333333 33.33333333 -32 32 C-31.2127322 29.8618034 -31.2127322 29.8618034 -31 28 C-30.360625 27.896875 -29.72125 27.79375 -29.0625 27.6875 C-28.381875 27.460625 -27.70125 27.23375 -27 27 C-26.67 26.01 -26.34 25.02 -26 24 C-24.2578125 22.5703125 -24.2578125 22.5703125 -22.125 21.125 C-18.75198665 18.71056948 -17.05489665 16.62053219 -15 13 C-13.35666496 11.96210419 -11.68756133 10.96432076 -10 10 C-8.29115995 8.37660195 -6.62553283 6.70680947 -5 5 C-3.33333333 3.33333333 -1.66666667 1.66666667 0 0 Z " fill="#6DCD3E" transform="translate(187,180)"/>
<path d="M0 0 C0.98928125 3.33041464 1.96454291 6.66478326 2.9375 10 C3.35418945 11.40185547 3.35418945 11.40185547 3.77929688 12.83203125 C5.34880008 18.24019891 6.47745625 23.39092274 7 29 C5.68 28.34 4.36 27.68 3 27 C3.19464844 26.278125 3.38929688 25.55625 3.58984375 24.8125 C4.05021962 21.65563691 3.61132217 19.98331638 2.5625 17 C1.34343997 13.50135238 0.83426654 10.71242946 1 7 C-0.32 7 -1.64 7 -3 7 C-3.99 6.67 -4.98 6.34 -6 6 C-6.33 6.99 -6.66 7.98 -7 9 C-9.0625 10.6875 -9.0625 10.6875 -11 12 C-11.66 11.67 -12.32 11.34 -13 11 C-11.21427748 9.16052663 -9.42197551 7.32842259 -7.625 5.5 C-7.11710938 4.97535156 -6.60921875 4.45070312 -6.0859375 3.91015625 C-2.2265625 0 -2.2265625 0 0 0 Z " fill="#6DD23C" transform="translate(150,233)"/>
<path d="M0 0 C0.85043068 3.78803538 1.67712761 7.58089107 2.5 11.375 C2.73847656 12.43589844 2.97695313 13.49679688 3.22265625 14.58984375 C4.63454905 21.16523023 5.33890634 27.27647474 5 34 C4.67 34 4.34 34 4 34 C3.35280447 30.1460608 2.70748861 26.29180911 2.0625 22.4375 C1.88009766 21.35146484 1.69769531 20.26542969 1.50976562 19.14648438 C0.61120979 13.77148675 -0.26401763 8.39978647 -1 3 C-7.7116188 8.63468283 -13.86092974 14.75936424 -20 21 C-20.66 20.67 -21.32 20.34 -22 20 C-19.19469153 17.1453424 -16.38292304 14.29722769 -13.56494141 11.45507812 C-12.60675044 10.48681462 -11.65036018 9.51676574 -10.69580078 8.54492188 C-9.3253618 7.1502903 -7.94793633 5.76253479 -6.5703125 4.375 C-5.74289551 3.53710938 -4.91547852 2.69921875 -4.06298828 1.8359375 C-2 0 -2 0 0 0 Z " fill="#75D242" transform="translate(432,200)"/>
<path d="M0 0 C2.12046792 3.53411321 2.53199289 6.94393835 3 11 C-3.33654266 10.29791463 -9.30812246 8.65627796 -15.4375 6.9375 C-16.45521484 6.65583984 -17.47292969 6.37417969 -18.52148438 6.08398438 C-21.01542128 5.39317556 -23.50818649 4.69842182 -26 4 C-26 3.67 -26 3.34 -26 3 C-23.03 3 -20.06 3 -17 3 C-17 3.66 -17 4.32 -17 5 C-12.38 5.66 -7.76 6.32 -3 7 C-2.67 5.68 -2.34 4.36 -2 3 C-1.67 3.66 -1.34 4.32 -1 5 C-0.67 3.35 -0.34 1.7 0 0 Z " fill="#69D634" transform="translate(311,160)"/>
<path d="M0 0 C2 3 2 3 2 6 C2.99 5.67 3.98 5.34 5 5 C6.25664978 7.90600261 7 9.79604584 7 13 C7.66 13.33 8.32 13.66 9 14 C8.46864789 15.59405634 7.92689944 17.18607416 7.3125 18.75 C6.81253128 21.23687511 6.81253128 21.23687511 8 24.5 C8.97839091 27.92436819 9.00866548 28.80589264 8 32 C6.85385832 28.08757221 5.71474464 24.17317321 4.58203125 20.25683594 C4.19592586 18.92554975 3.80792331 17.59481223 3.41796875 16.26464844 C2.85695836 14.34977112 2.30338797 12.43271904 1.75 10.515625 C1.41484375 9.36352539 1.0796875 8.21142578 0.734375 7.02441406 C0 4 0 4 0 0 Z M5 4 C7 5 7 5 7 5 Z " fill="#68D736" transform="translate(311,125)"/>
<path d="M0 0 C2.42130331 3.63195496 2.21022785 5.38349348 2.125 9.6875 C2.10695313 10.86699219 2.08890625 12.04648438 2.0703125 13.26171875 C2.03550781 14.61716797 2.03550781 14.61716797 2 16 C0.02 15.34 -1.96 14.68 -4 14 C-4.66 16.64 -5.32 19.28 -6 22 C-7.22223397 17.1110641 -5.92715573 14.3523558 -4.125 9.875 C-3.70154297 8.78251953 -3.70154297 8.78251953 -3.26953125 7.66796875 C-2.25634094 5.07016801 -1.24771231 2.49542463 0 0 Z " fill="#64D72F" transform="translate(77,175)"/>
<path d="M0 0 C6.60132039 0.6149815 12.65462154 2.17639095 19 4.0625 C19.96550781 4.34416016 20.93101562 4.62582031 21.92578125 4.91601562 C24.28550816 5.60524279 26.64345085 6.30000011 29 7 C26.15707701 7.75729651 23.81800131 8.06618637 20.875 7.9375 C16.98538931 7.55086978 16.98538931 7.55086978 15 10 C15 9.01 15 8.02 15 7 C14.071875 6.7834375 14.071875 6.7834375 13.125 6.5625 C11 6 11 6 9 5 C9 4.34 9 3.68 9 3 C6.69 3.33 4.38 3.66 2 4 C2 3.01 2 2.02 2 1 C1.34 0.67 0.68 0.34 0 0 Z " fill="#6DD73B" transform="translate(320,366)"/>
<path d="M0 0 C14.15084715 3.13381897 28.06751485 7.01593071 42 11 C38.29006267 12.33965319 35.77001468 11.64363612 32.02734375 10.6015625 C30.88072266 10.28703125 29.73410156 9.9725 28.55273438 9.6484375 C26.76319336 9.14183594 26.76319336 9.14183594 24.9375 8.625 C23.1421582 8.13 23.1421582 8.13 21.31054688 7.625 C12.83557413 5.27852471 12.83557413 5.27852471 9 4 C7.43881572 3.93259135 5.8749748 3.91485544 4.3125 3.9375 C3.50425781 3.94652344 2.69601563 3.95554687 1.86328125 3.96484375 C1.24839844 3.97644531 0.63351563 3.98804688 0 4 C0 2.68 0 1.36 0 0 Z " fill="#73D044" transform="translate(184,328)"/>
<path d="M0 0 C0.66 0.33 1.32 0.66 2 1 C0.02 3.31 -1.96 5.62 -4 8 C-3.10168457 8.23187012 -2.20336914 8.46374023 -1.27783203 8.70263672 C2.05209671 9.56563211 5.38029777 10.43475718 8.70751953 11.30810547 C10.14828061 11.68492989 11.58968735 12.05929452 13.03173828 12.43115234 C15.10363372 12.96588104 17.17305107 13.50939389 19.2421875 14.0546875 C21.11173096 14.54171143 21.11173096 14.54171143 23.01904297 15.03857422 C26 16 26 16 28 18 C23.36527122 17.40238417 18.92827833 16.56007324 14.41015625 15.37109375 C12.61674805 14.90219727 12.61674805 14.90219727 10.78710938 14.42382812 C9.55798828 14.09833984 8.32886719 13.77285156 7.0625 13.4375 C5.17821289 12.9434668 5.17821289 12.9434668 3.25585938 12.43945312 C0.16964518 11.62976195 -2.91558411 10.81650981 -6 10 C-6 6 -6 6 -4.6875 4.296875 C-4.130625 3.78640625 -3.57375 3.2759375 -3 2.75 C-2.1646875 1.96882813 -2.1646875 1.96882813 -1.3125 1.171875 C-0.879375 0.78515625 -0.44625 0.3984375 0 0 Z " fill="#7ED749" transform="translate(124,109)"/>
<path d="M0 0 C2.6268119 3.94021786 3.49573542 7.89113881 4.6875 12.4375 C5.04424805 13.72624023 5.04424805 13.72624023 5.40820312 15.04101562 C5.62798828 15.87181641 5.84777344 16.70261719 6.07421875 17.55859375 C6.27619873 18.31454834 6.47817871 19.07050293 6.6862793 19.84936523 C7.02954029 22.20250616 6.72719845 23.75475491 6 26 C3.89366282 24.29171079 3.06198392 23.47851584 2.70703125 20.73828125 C2.74183594 19.93777344 2.77664062 19.13726562 2.8125 18.3125 C2.83957031 17.50425781 2.86664063 16.69601562 2.89453125 15.86328125 C2.92933594 15.24839844 2.96414062 14.63351562 3 14 C2.01 14.33 1.02 14.66 0 15 C0 10.05 0 5.1 0 0 Z " fill="#6DD939" transform="translate(186,374)"/>
<path d="M0 0 C9.9047278 1.90411293 18.75898497 5.05052055 28 9 C24.68915217 10.10361594 24.21874808 9.96670821 21.12890625 8.78515625 C20.38962891 8.51123047 19.65035156 8.23730469 18.88867188 7.95507812 C18.12103516 7.66052734 17.35339844 7.36597656 16.5625 7.0625 C15.04518641 6.48502453 13.52570759 5.91319948 12.00390625 5.34765625 C11.33174072 5.08992432 10.6595752 4.83219238 9.96704102 4.56665039 C7.70055673 3.81545633 7.70055673 3.81545633 4 4 C4 3.34 4 2.68 4 2 C3.34 2 2.68 2 2 2 C2 3.98 2 5.96 2 8 C-0.1519437 4.77208445 -0.20086443 3.71599191 0 0 Z " fill="#77D746" transform="translate(295,67)"/>
<path d="M0 0 C2.97 0.495 2.97 0.495 6 1 C4.59914312 5.75109895 2.23282473 7.80698538 -1.625 10.8125 C-3.12933594 11.99779297 -3.12933594 11.99779297 -4.6640625 13.20703125 C-5.43492187 13.79871094 -6.20578125 14.39039063 -7 15 C-7.33 14.01 -7.66 13.02 -8 12 C-7.01 11.67 -6.02 11.34 -5 11 C-4.67 9.35 -4.34 7.7 -4 6 C-2.35 6 -0.7 6 1 6 C0.67 5.01 0.34 4.02 0 3 C0.66 2.67 1.32 2.34 2 2 C1.34 1.34 0.68 0.68 0 0 Z " fill="#6DD835" transform="translate(376,381)"/>
<path d="M0 0 C2.97 0 5.94 0 9 0 C9 0.66 9 1.32 9 2 C10.11117188 2.25394531 11.22234375 2.50789063 12.3671875 2.76953125 C20.32580631 4.60510344 28.22403255 6.47806461 36 9 C31.98244413 10.6114863 28.56227824 9.30448095 24.609375 8.12890625 C23.90476135 7.9277269 23.20014771 7.72654755 22.47418213 7.51927185 C20.23001395 6.87622932 17.9900924 6.21958416 15.75 5.5625 C14.22682261 5.12344557 12.70338756 4.68528397 11.1796875 4.24804688 C7.45005892 3.17569187 3.72417922 2.09112251 0 1 C0 0.67 0 0.34 0 0 Z " fill="#7BDC45" transform="translate(317,355)"/>
<path d="M0 0 C3.79954885 3.5466892 6.6426306 7.21407556 9.3125 11.6875 C9.67150391 12.26822266 10.03050781 12.84894531 10.40039062 13.44726562 C13 17.73043155 13 17.73043155 13 20 C11.68 19.67 10.36 19.34 9 19 C8.9175 18.278125 8.835 17.55625 8.75 16.8125 C7.83068053 13.36505198 6.47718283 11.54795948 4 9 C1.87053397 8.13034494 1.87053397 8.13034494 0 8 C0 7.34 0 6.68 0 6 C0.66 6 1.32 6 2 6 C1.34 4.02 0.68 2.04 0 0 Z " fill="#73DC3C" transform="translate(402,140)"/>
<path d="M0 0 C0 4.26410686 -2.33320143 5.79984172 -5 9 C-5 9.99 -5 10.98 -5 12 C-6.28650706 12.69710731 -7.57940665 13.38242876 -8.875 14.0625 C-9.59429687 14.44535156 -10.31359375 14.82820313 -11.0546875 15.22265625 C-11.69664062 15.47917969 -12.33859375 15.73570312 -13 16 C-13.66 15.67 -14.32 15.34 -15 15 C-10.05 10.05 -5.1 5.1 0 0 Z " fill="#67CE35" transform="translate(346,284)"/>
<path d="M0 0 C0.33 0 0.66 0 1 0 C1.33 3.3 1.66 6.6 2 10 C2.99 9.67 3.98 9.34 5 9 C4.67 11.31 4.34 13.62 4 16 C6.31 14.02 8.62 12.04 11 10 C11.66 10.33 12.32 10.66 13 11 C10.36 13.64 7.72 16.28 5 19 C3 18 3 18 2.1484375 15.48828125 C1.89320312 14.44027344 1.63796875 13.39226562 1.375 12.3125 C1.11460938 11.27738281 0.85421875 10.24226563 0.5859375 9.17578125 C0.00698506 6.03785903 -0.1049677 3.18242993 0 0 Z " fill="#71D440" transform="translate(65,281)"/>
<path d="M0 0 C1.65 0 3.3 0 5 0 C-0.55035203 6.78376359 -6.76442027 12.85522968 -13 19 C-13 14.82089065 -10.78775814 12.85693328 -8 10 C-6.18255011 8.45038483 -4.34590559 6.9488056 -2.453125 5.4921875 C-0.72932884 3.72205273 -0.39263736 2.40748696 0 0 Z " fill="#6FCF3F" transform="translate(204,160)"/>
<path d="M0 0 C4.13621084 3.3810038 7.81316569 6.66590534 11 11 C10.67 11.66 10.34 12.32 10 13 C9.34 13 8.68 13 8 13 C6.65117592 13.63474075 5.3153341 14.29848848 4 15 C4.66 13.35 5.32 11.7 6 10 C5.34 10 4.68 10 4 10 C3.896875 9.236875 3.79375 8.47375 3.6875 7.6875 C2.94399108 4.78105605 2.15141968 3.96433971 0 2 C0 1.34 0 0.68 0 0 Z " fill="#6CD938" transform="translate(388,123)"/>
<path d="M0 0 C0.66 0.33 1.32 0.66 2 1 C0.68 3.64 -0.64 6.28 -2 9 C-3.98 9 -5.96 9 -8 9 C-8 9.66 -8 10.32 -8 11 C-8.66 10.67 -9.32 10.34 -10 10 C-6.92118304 6.12948725 -3.99926986 2.97088618 0 0 Z " fill="#65D62B" transform="translate(135,100)"/>
<path d="M0 0 C1.258125 -0.020625 2.51625 -0.04125 3.8125 -0.0625 C4.52019531 -0.07410156 5.22789062 -0.08570313 5.95703125 -0.09765625 C8 0 8 0 11 1 C11 1.66 11 2.32 11 3 C8.36 3.33 5.72 3.66 3 4 C2.67 5.65 2.34 7.3 2 9 C0.14223235 5.86501708 -0.20140476 3.62528568 0 0 Z " fill="#61D72D" transform="translate(185,331)"/>
<path d="M0 0 C-2.20804559 0.79247664 -4.41642497 1.5840013 -6.625 2.375 C-7.85476563 2.81585938 -9.08453125 3.25671875 -10.3515625 3.7109375 C-11.55554688 4.13632812 -12.75953125 4.56171875 -14 5 C-15.6396875 5.5878125 -15.6396875 5.5878125 -17.3125 6.1875 C-20.0953057 7.02881335 -21.32741973 7.02791549 -24 6 C-20.5647952 3.70986347 -19.014669 3.82157027 -15 4 C-15 3.34 -15 2.68 -15 2 C-14.38511719 1.86722656 -13.77023437 1.73445313 -13.13671875 1.59765625 C-12.32847656 1.42105469 -11.52023437 1.24445313 -10.6875 1.0625 C-9.88699219 0.88847656 -9.08648437 0.71445312 -8.26171875 0.53515625 C-2.49090909 -0.83030303 -2.49090909 -0.83030303 0 0 Z " fill="#77DC3F" transform="translate(320,425)"/>
<path d="M0 0 C-2.59836136 1.36645701 -5.20265556 2.71830669 -7.8125 4.0625 C-8.91948242 4.64741211 -8.91948242 4.64741211 -10.04882812 5.24414062 C-10.76103516 5.60830078 -11.47324219 5.97246094 -12.20703125 6.34765625 C-12.8616333 6.68804932 -13.51623535 7.02844238 -14.19067383 7.37915039 C-16 8 -16 8 -19 7 C-18.34 7 -17.68 7 -17 7 C-17.33 5.68 -17.66 4.36 -18 3 C-17.01 3 -16.02 3 -15 3 C-11.39738778 2.30462926 -7.9589237 1.49242028 -4.6875 -0.1875 C-3 -1 -3 -1 0 0 Z " fill="#70DD3C" transform="translate(339,416)"/>
<path d="M0 0 C7.11120489 1.31117661 14.04699943 3.01720516 21 5 C21 5.33 21 5.66 21 6 C18.69 6 16.38 6 14 6 C14.33 6.66 14.66 7.32 15 8 C14.01 8 13.02 8 12 8 C12 7.01 12 6.02 12 5 C11.30132812 4.80664062 10.60265625 4.61328125 9.8828125 4.4140625 C8.51769531 4.02347656 8.51769531 4.02347656 7.125 3.625 C5.76761719 3.24214844 5.76761719 3.24214844 4.3828125 2.8515625 C2 2 2 2 0 0 Z " fill="#73DA43" transform="translate(116,127)"/>
<path d="M0 0 C-6.59090909 5 -6.59090909 5 -10 5 C-10 4.34 -10 3.68 -10 3 C-11.0725 3.350625 -12.145 3.70125 -13.25 4.0625 C-16.78720743 4.94680186 -17.74811124 5.02880551 -21 4 C-18.62734939 3.32382476 -16.25244645 2.65891774 -13.875 2 C-13.20984375 1.80921875 -12.5446875 1.6184375 -11.859375 1.421875 C-7.8013795 0.30791545 -4.20314026 -0.20950232 0 0 Z " fill="#73D83A" transform="translate(218,65)"/>
<path d="M0 0 C2.55238691 2.55238691 3.37101985 5.017787 4.6875 8.375 C5.14511719 9.51710937 5.60273438 10.65921875 6.07421875 11.8359375 C7 15 7 15 6 19 C5.34 16.36 4.68 13.72 4 11 C3.34 11 2.68 11 2 11 C-0.67927341 6.98108988 -0.15601248 4.75838077 0 0 Z " fill="#71D73A" transform="translate(421,172)"/>
<path d="M0 0 C2.97 0 5.94 0 9 0 C9 0.66 9 1.32 9 2 C9.68707031 2.12117187 10.37414062 2.24234375 11.08203125 2.3671875 C11.98308594 2.53476563 12.88414062 2.70234375 13.8125 2.875 C15.15248047 3.11863281 15.15248047 3.11863281 16.51953125 3.3671875 C19 4 19 4 22 6 C14.36945905 5.38955672 7.29810526 3.20378179 0 1 C0 0.67 0 0.34 0 0 Z " fill="#6FD040" transform="translate(285,163)"/>
<path d="M0 0 C6.48472993 0.73690113 12.69239743 2.35318751 19 4 C19 4.33 19 4.66 19 5 C18.01257813 4.91621094 17.02515625 4.83242187 16.0078125 4.74609375 C14.72648438 4.64425781 13.44515625 4.54242188 12.125 4.4375 C10.84882813 4.33308594 9.57265625 4.22867188 8.2578125 4.12109375 C5.11356058 3.74316633 5.11356058 3.74316633 3 5 C2.87625 4.360625 2.7525 3.72125 2.625 3.0625 C2.315625 2.0415625 2.315625 2.0415625 2 1 C1.34 0.67 0.68 0.34 0 0 Z " fill="#74D941" transform="translate(178,144)"/>
<path d="M0 0 C6.48472993 0.73690113 12.69239743 2.35318751 19 4 C19 4.33 19 4.66 19 5 C15.04 5 11.08 5 7 5 C6.67 4.01 6.34 3.02 6 2 C3.03 1.505 3.03 1.505 0 1 C0 0.67 0 0.34 0 0 Z M5 5 C5.66 5 6.32 5 7 5 C6.67 5.66 6.34 6.32 6 7 C5.67 6.34 5.34 5.68 5 5 Z " fill="#78DD45" transform="translate(152,137)"/>
<path d="M0 0 C1.32 0 2.64 0 4 0 C4 1.65 4 3.3 4 5 C5.093125 5.12375 6.18625 5.2475 7.3125 5.375 C11 6 11 6 14 8 C6.57142857 7 6.57142857 7 3 6 C3 5.34 3 4.68 3 4 C1.68 3.67 0.36 3.34 -1 3 C-0.67 2.01 -0.34 1.02 0 0 Z " fill="#6AD932" transform="translate(299,346)"/>
<path d="M0 0 C0.66 0 1.32 0 2 0 C2 0.66 2 1.32 2 2 C3.32 1.34 4.64 0.68 6 0 C4.33248852 3.94139078 1.77289351 6.7892812 -1 10 C-2.24546405 7.50907189 -1.7767578 6.58919267 -1 4 C-0.34 4 0.32 4 1 4 C1 3.34 1 2.68 1 2 C0.34 1.67 -0.32 1.34 -1 1 C-0.67 0.67 -0.34 0.34 0 0 Z " fill="#6DDB36" transform="translate(396,360)"/>
<path d="M0 0 C0.66 0 1.32 0 2 0 C2.33 1.65 2.66 3.3 3 5 C2.01 4.67 1.02 4.34 0 4 C0 5.65 0 7.3 0 9 C-0.99 8.67 -1.98 8.34 -3 8 C-3 6.35 -3 4.7 -3 3 C-2.01 2.67 -1.02 2.34 0 2 C0 1.34 0 0.68 0 0 Z " fill="#65D730" transform="translate(283,65)"/>
<path d="M0 0 C3.94139078 1.66751148 6.7892812 4.22710649 10 7 C7 7 7 7 4 5 C0.87478167 4.83300768 0.87478167 4.83300768 -2 5 C-1.34 3.35 -0.68 1.7 0 0 Z " fill="#71D83C" transform="translate(364,101)"/>
<path d="M0 0 C2.57553142 3.86329714 4.92177718 7.84355437 7 12 C5.35 12 3.7 12 2 12 C0.86235649 7.73383684 0 4.43513689 0 0 Z " fill="#6FDD2F" transform="translate(190,351)"/>
<path d="M0 0 C0.66 0 1.32 0 2 0 C2.33 0.99 2.66 1.98 3 3 C0.69 5.31 -1.62 7.62 -4 10 C-4.33 9.34 -4.66 8.68 -5 8 C-3.66666667 6 -2.33333333 4 -1 2 C-0.67 1.34 -0.34 0.68 0 0 Z " fill="#68D831" transform="translate(359,254)"/>
<path d="M0 0 C0.66 0.33 1.32 0.66 2 1 C-0.97 3.97 -3.94 6.94 -7 10 C-7.33 8.68 -7.66 7.36 -8 6 C-7.05125 5.38125 -6.1025 4.7625 -5.125 4.125 C-2.05554891 2.18029031 -2.05554891 2.18029031 0 0 Z " fill="#73D73F" transform="translate(107,260)"/>
<path d="M0 0 C0 0.33 0 0.66 0 1 C-5.15171623 1.09038099 -9.91913204 0.84681133 -15 0 C-15 -0.33 -15 -0.66 -15 -1 C-9.3067505 -2.18609365 -5.57432514 -1.66251802 0 0 Z " fill="#76D646" transform="translate(233,436)"/>
<path d="M0 0 C5.98993047 -0.3152595 9.63560356 0.31780178 15 3 C11.34142468 4.31534494 8.91973519 3.65468309 5.25 2.5625 C4.26515625 2.27503906 3.2803125 1.98757813 2.265625 1.69140625 C1.51796875 1.46324219 0.7703125 1.23507812 0 1 C0 0.67 0 0.34 0 0 Z " fill="#77D83F" transform="translate(360,367)"/>
<path d="M0 0 C2.97 0.495 2.97 0.495 6 1 C5.1875 3.4375 5.1875 3.4375 4 6 C3.01 6.33 2.02 6.66 1 7 C0.67 5.68 0.34 4.36 0 3 C0.66 2.67 1.32 2.34 2 2 C1.34 1.34 0.68 0.68 0 0 Z " fill="#77D344" transform="translate(376,381)"/>
<path d="M0 0 C0.66 0.33 1.32 0.66 2 1 C-0.64 3.64 -3.28 6.28 -6 9 C-6.66 8.67 -7.32 8.34 -8 8 C-7 5 -7 5 -5.125 4 C-4.42375 3.67 -3.7225 3.34 -3 3 C-1.29078411 1.4587688 -1.29078411 1.4587688 0 0 Z " fill="#7CDC46" transform="translate(76,291)"/>
<path d="M0 0 C0 3.74161103 -0.51338171 7.28953557 -1 11 C-3 9 -3 9 -3.3125 6.0625 C-3 3 -3 3 -1.5 1.125 C-1.005 0.75375 -0.51 0.3825 0 0 Z " fill="#62D52D" transform="translate(76,307)"/>
<path d="M0 0 C0.99 0.33 1.98 0.66 3 1 C2.67 1.66 2.34 2.32 2 3 C2.66 3.66 3.32 4.32 4 5 C3.01 5.66 2.02 6.32 1 7 C0.01 6.01 -0.98 5.02 -2 4 C-1.34 2.68 -0.68 1.36 0 0 Z " fill="#60D92B" transform="translate(402,208)"/>
<path d="M0 0 C0.66 0 1.32 0 2 0 C2 0.66 2 1.32 2 2 C2.66 2.33 3.32 2.66 4 3 C3.67 5.31 3.34 7.62 3 10 C0.70366176 6.55549263 0.45983515 4.06187717 0 0 Z " fill="#6BD53B" transform="translate(320,158)"/>
<path d="M0 0 C0.66 0.33 1.32 0.66 2 1 C-0.51830747 4.12270126 -1.7261549 4.94523098 -5.75 5.75 C-7.35875 5.87375 -7.35875 5.87375 -9 6 C-6.45368965 3.02930459 -3.57769851 1.5224249 0 0 Z " fill="#71D83F" transform="translate(166,81)"/>
<path d="M0 0 C1.76462683 3.08809695 2 4.23312136 2 8 C0.35 8 -1.3 8 -3 8 C-3 7.01 -3 6.02 -3 5 C-2.34 5.33 -1.68 5.66 -1 6 C-0.67 4.02 -0.34 2.04 0 0 Z " fill="#66D536" transform="translate(157,262)"/>
<path d="M0 0 C-2.97 2.475 -2.97 2.475 -6 5 C-6.33 3.68 -6.66 2.36 -7 1 C-3.375 -1.125 -3.375 -1.125 0 0 Z " fill="#71D339" transform="translate(368,251)"/>
<path d="M0 0 C1.32 0.33 2.64 0.66 4 1 C1.69 3.31 -0.62 5.62 -3 8 C-3 4.42424104 -1.91159393 2.94704065 0 0 Z " fill="#6FCE3C" transform="translate(146,219)"/>
<path d="M0 0 C-2.97 2.475 -2.97 2.475 -6 5 C-6.33 3.68 -6.66 2.36 -7 1 C-3.375 -1.125 -3.375 -1.125 0 0 Z " fill="#72D33B" transform="translate(416,203)"/>
<path d="M0 0 C3.77545388 1.09068668 6.47043472 1.9083091 9 5 C7.68428397 4.7452486 6.37239624 4.47065859 5.0625 4.1875 C4.33160156 4.03667969 3.60070312 3.88585937 2.84765625 3.73046875 C2.23792969 3.48941406 1.62820313 3.24835938 1 3 C0.67 2.01 0.34 1.02 0 0 Z " fill="#77D942" transform="translate(336,83)"/>
</svg>
