<?xml version="1.0" encoding="UTF-8"?>
<svg version="1.1" xmlns="http://www.w3.org/2000/svg" width="388" height="253">
<path d="M0 0 C0.8505748 -0.0065712 1.7011496 -0.0131424 2.57749939 -0.01991272 C5.39956749 -0.03966501 8.22158234 -0.05131243 11.04370117 -0.0612793 C12.48788705 -0.06739259 12.48788705 -0.06739259 13.9612484 -0.07362938 C19.05684572 -0.09449809 24.15241604 -0.10879649 29.24804688 -0.11816406 C34.51415896 -0.1292318 39.77984888 -0.16363366 45.04581165 -0.20333576 C49.09243054 -0.22946727 53.1389483 -0.2378528 57.18564415 -0.24144554 C59.1269281 -0.24632026 61.06820727 -0.25795937 63.00940895 -0.27648354 C65.72666605 -0.30080195 68.4428239 -0.29992344 71.16015625 -0.29296875 C72.36277603 -0.31218384 72.36277603 -0.31218384 73.58969116 -0.33178711 C77.30571314 -0.29712512 79.51692968 0.01437141 82.68754578 2.01887512 C86.67534836 6.14332837 86.67534836 6.14332837 86.96948242 9.2199707 C86.90437826 11.20564779 86.83927409 13.19132487 86.77416992 15.17700195 C85.12416992 15.50700195 83.47416992 15.83700195 81.77416992 16.17700195 C79.75749599 13.61032604 78.19208555 11.11147082 76.77416992 8.17700195 C66.90761665 7.9761031 57.04090376 7.79247006 47.17363167 7.63041401 C42.59105344 7.55461885 38.00873476 7.47304883 33.42651367 7.37792969 C28.99815719 7.28622286 24.5697744 7.2101448 20.14095688 7.14455223 C18.45772282 7.11694267 16.77456871 7.08385698 15.09155655 7.04500771 C1.9892943 6.32731508 1.9892943 6.32731508 -10.22583008 10.17700195 C-12.45851736 13.63152922 -12.75921385 17.13299463 -13.22583008 21.17700195 C-12.58404816 21.18064758 -11.94226624 21.18429321 -11.28103638 21.18804932 C-4.56403183 21.23005982 2.1523012 21.29953456 8.86889648 21.38452148 C11.3711066 21.41263984 13.87340404 21.4338995 16.37573242 21.44799805 C19.98555918 21.46955354 23.59434612 21.51627116 27.20385742 21.56762695 C28.86540359 21.56946991 28.86540359 21.56946991 30.56051636 21.5713501 C39.38369214 21.73542971 46.9309483 23.36330171 53.64916992 29.36450195 C59.71920325 36.15203331 61.54325119 42.90352952 61.21557617 51.9621582 C60.11462492 59.98059074 56.14880111 65.8022937 49.86791992 70.77075195 C43.28277429 75.19361096 36.62641717 76.17393491 28.77416992 75.17700195 C21.87228009 73.23481674 15.42647768 69.28042033 11.48901367 63.1887207 C8.01502155 56.57692924 6.42564418 49.82340747 8.56323242 42.45825195 C10.24245834 37.68976309 12.13595937 33.49292484 14.77416992 29.17700195 C13.63118187 29.18033287 13.63118187 29.18033287 12.46510315 29.18373108 C5.2986528 29.20373352 -1.86778409 29.21897584 -9.03425503 29.22881413 C-12.71897506 29.23404203 -16.40367211 29.241138 -20.08837891 29.25244141 C-23.64153839 29.26327357 -27.1946757 29.26927948 -30.74785042 29.2718792 C-32.10628674 29.27373285 -33.46472179 29.27735234 -34.82314873 29.28273201 C-36.71965231 29.2899467 -38.61617801 29.29041004 -40.51269531 29.29052734 C-42.13485207 29.29385826 -42.13485207 29.29385826 -43.78977966 29.29725647 C-46.22583008 29.17700195 -46.22583008 29.17700195 -47.22583008 28.17700195 C-47.47583008 25.73950195 -47.47583008 25.73950195 -47.22583008 23.17700195 C-43.92294672 20.97507971 -42.95120281 20.93740227 -39.12036133 20.98168945 C-38.13745117 20.98813477 -37.15454102 20.99458008 -36.1418457 21.0012207 C-35.11768555 21.01797852 -34.09352539 21.03473633 -33.03833008 21.05200195 C-32.00256836 21.06102539 -30.96680664 21.07004883 -29.8996582 21.0793457 C-27.34148323 21.10292335 -24.7837726 21.13583165 -22.22583008 21.17700195 C-22.02989258 20.31977539 -21.83395508 19.46254883 -21.63208008 18.5793457 C-19.5325339 10.55220149 -17.2660905 5.74859963 -10.22583008 1.17700195 C-7.01793456 -0.4269458 -3.52475909 0.0117325 0 0 Z M28.77416992 30.17700195 C28.77416992 30.50700195 28.77416992 30.83700195 28.77416992 31.17700195 C32.40416992 31.17700195 36.03416992 31.17700195 39.77416992 31.17700195 C39.77416992 30.84700195 39.77416992 30.51700195 39.77416992 30.17700195 C36.14416992 30.17700195 32.51416992 30.17700195 28.77416992 30.17700195 Z M25.77416992 31.17700195 C24.78416992 32.16700195 23.79416992 33.15700195 22.77416992 34.17700195 C24.75416992 33.51700195 26.73416992 32.85700195 28.77416992 32.17700195 C27.78416992 31.84700195 26.79416992 31.51700195 25.77416992 31.17700195 Z M16.77416992 42.17700195 C17.77416992 44.17700195 17.77416992 44.17700195 17.77416992 44.17700195 Z M15.77416992 47.17700195 C16.77416992 51.17700195 16.77416992 51.17700195 16.77416992 51.17700195 Z M52.77416992 48.17700195 C52.5550293 48.91305664 52.33588867 49.64911133 52.11010742 50.4074707 C50.04129914 56.77368155 48.47401118 60.5388054 42.77416992 64.17700195 C39.21371815 65.36381921 36.33608655 65.27390027 32.58666992 65.23950195 C31.31436523 65.23047852 30.04206055 65.22145508 28.73120117 65.2121582 C27.2674707 65.19475586 27.2674707 65.19475586 25.77416992 65.17700195 C28.22381673 67.62664876 29.3742139 67.72367448 32.77416992 68.17700195 C33.82604492 68.32137695 34.87791992 68.46575195 35.96166992 68.61450195 C41.51185968 67.97759493 45.47906687 65.70272133 49.77416992 62.17700195 C53.14724168 57.82910383 54.32608225 53.69612523 53.77416992 48.17700195 C53.44416992 48.17700195 53.11416992 48.17700195 52.77416992 48.17700195 Z M16.77416992 54.17700195 C17.77416992 56.17700195 17.77416992 56.17700195 17.77416992 56.17700195 Z " fill="#09B462" transform="translate(158.225830078125,70.822998046875)"/>
<path d="M0 0 C0.8505748 -0.0065712 1.7011496 -0.0131424 2.57749939 -0.01991272 C5.39956749 -0.03966501 8.22158234 -0.05131243 11.04370117 -0.0612793 C12.48788705 -0.06739259 12.48788705 -0.06739259 13.9612484 -0.07362938 C19.05684572 -0.09449809 24.15241604 -0.10879649 29.24804688 -0.11816406 C34.51415896 -0.1292318 39.77984888 -0.16363366 45.04581165 -0.20333576 C49.09243054 -0.22946727 53.1389483 -0.2378528 57.18564415 -0.24144554 C59.1269281 -0.24632026 61.06820727 -0.25795937 63.00940895 -0.27648354 C65.72666605 -0.30080195 68.4428239 -0.29992344 71.16015625 -0.29296875 C72.36277603 -0.31218384 72.36277603 -0.31218384 73.58969116 -0.33178711 C77.30571314 -0.29712512 79.51692968 0.01437141 82.68754578 2.01887512 C86.67534836 6.14332837 86.67534836 6.14332837 86.96948242 9.2199707 C86.90437826 11.20564779 86.83927409 13.19132487 86.77416992 15.17700195 C85.12416992 15.50700195 83.47416992 15.83700195 81.77416992 16.17700195 C79.75749599 13.61032604 78.19208555 11.11147082 76.77416992 8.17700195 C66.90761665 7.9761031 57.04090376 7.79247006 47.17363167 7.63041401 C42.59105344 7.55461885 38.00873476 7.47304883 33.42651367 7.37792969 C28.99815719 7.28622286 24.5697744 7.2101448 20.14095688 7.14455223 C18.45772282 7.11694267 16.77456871 7.08385698 15.09155655 7.04500771 C1.9892943 6.32731508 1.9892943 6.32731508 -10.22583008 10.17700195 C-12.75132393 14.82376362 -12.75132393 14.82376362 -14.22583008 23.17700195 C-2.67583008 23.17700195 8.87416992 23.17700195 20.77416992 23.17700195 C20.77416992 23.50700195 20.77416992 23.83700195 20.77416992 24.17700195 C18.46416992 24.17700195 16.15416992 24.17700195 13.77416992 24.17700195 C13.77416992 24.83700195 13.77416992 25.49700195 13.77416992 26.17700195 C14.76416992 26.83700195 15.75416992 27.49700195 16.77416992 28.17700195 C-3.68583008 28.17700195 -24.14583008 28.17700195 -45.22583008 28.17700195 C-45.55583008 26.19700195 -45.88583008 24.21700195 -46.22583008 22.17700195 C-43.72086004 20.92451693 -42.01729734 21.06325789 -39.21801758 21.0793457 C-38.23188477 21.08256836 -37.24575195 21.08579102 -36.22973633 21.08911133 C-35.19719727 21.09749023 -34.1646582 21.10586914 -33.10083008 21.11450195 C-31.54041992 21.12126953 -31.54041992 21.12126953 -29.94848633 21.12817383 C-27.37421046 21.13998243 -24.80004862 21.1564512 -22.22583008 21.17700195 C-22.02989258 20.31977539 -21.83395508 19.46254883 -21.63208008 18.5793457 C-19.5325339 10.55220149 -17.2660905 5.74859963 -10.22583008 1.17700195 C-7.01793456 -0.4269458 -3.52475909 0.0117325 0 0 Z " fill="#04BA5F" transform="translate(158.225830078125,70.822998046875)"/>
<path d="M0 0 C0 0.66 0 1.32 0 2 C0.66 2 1.32 2 2 2 C4.67351703 4.08664744 6.67555009 5.74623284 7.546875 9.11328125 C7.78286329 11.06712548 7.90005907 13.03449508 8 15 C8.66 15 9.32 15 10 15 C8.17026825 23.36023777 6.53274397 28.76232574 -0.625 33.875 C-6.76643227 35.92214409 -13.76010458 35.73795745 -20 34 C-24.17486566 29.92222424 -25.75605149 26.6543114 -27 21 C-27.66 21 -28.32 21 -29 21 C-29 19.02 -29 17.04 -29 15 C-28.34 15 -27.68 15 -27 15 C-26.731875 13.948125 -26.46375 12.89625 -26.1875 11.8125 C-24.64998896 6.87628036 -23.63521359 4.07775441 -19.25 1.1875 C-13.32021765 -1.10209058 -6.26077273 -0.21755581 0 0 Z M-28 16 C-27 20 -27 20 -27 20 Z " fill="#5170F9" transform="translate(202,102)"/>
<path d="M0 0 C4.69725393 3.70796688 4.69725393 3.70796688 5.45141602 6.92651367 C5.59067022 9.24468658 5.58737106 11.52204349 5.53125 13.84375 C5.53451294 14.69046265 5.53777588 15.53717529 5.5411377 16.4095459 C5.55427562 20.01848377 5.50951672 23.62617772 5.47021484 27.23486328 C5.44972838 29.87571124 5.45857296 32.51537076 5.46875 35.15625 C5.44913208 35.96783569 5.42951416 36.77942139 5.40930176 37.61560059 C5.4289964 41.91061771 5.60011723 43.50039257 8.38085938 46.97460938 C12.70763875 50.32052303 16.63158925 51.25091943 22 52 C21.125 56.875 21.125 56.875 20 58 C14.57741605 58.70982322 10.16816736 58.29787594 5.56640625 55.265625 C1.04091348 51.60911713 -1.53005172 47.66581849 -3 42 C-3.25418578 38.95678836 -3.23363404 35.9348149 -3.1953125 32.8828125 C-3.1924826 32.02565643 -3.18965271 31.16850037 -3.18673706 30.28536987 C-3.17559999 27.56510068 -3.1505076 24.84516859 -3.125 22.125 C-3.11496182 20.27344228 -3.10583744 18.42187936 -3.09765625 16.5703125 C-3.07568188 12.0467464 -3.041197 7.52343023 -3 3 C-2.01 2.67 -1.02 2.34 0 2 C0 1.34 0 0.68 0 0 Z " fill="#0FB567" transform="translate(140,101)"/>
<path d="M0 0 C1.32 0 2.64 0 4 0 C6.35058445 6.4757208 6.26684989 12.60059519 6.1875 19.4375 C6.18032959 20.58734375 6.17315918 21.7371875 6.16577148 22.921875 C5.93655737 47.12688526 5.93655737 47.12688526 4 51 C-4.25 51 -12.5 51 -21 51 C-22 47 -22 47 -21 45 C-14.73 45 -8.46 45 -2 45 C-2.03480469 40.63007813 -2.03480469 40.63007813 -2.0703125 36.171875 C-2.08591217 33.3488 -2.09805513 30.52572982 -2.10986328 27.70263672 C-2.11991783 25.74135182 -2.13356333 23.78008189 -2.15087891 21.81884766 C-2.17515113 18.99898582 -2.18648859 16.17932228 -2.1953125 13.359375 C-2.21079636 12.04510529 -2.21079636 12.04510529 -2.22659302 10.70428467 C-2.22674408 9.88373596 -2.22689514 9.06318726 -2.22705078 8.21777344 C-2.231492 7.49829529 -2.23593323 6.77881714 -2.24050903 6.03753662 C-1.96199823 3.67805788 -1.16589346 2.05358654 0 0 Z " fill="#04BF57" transform="translate(241,108)"/>
<path d="M0 0 C2.475 0.99 2.475 0.99 5 2 C4.55296024 6.9174374 2.38164759 10.52236678 -1 14 C-14.67347521 24.16271806 -26.72915543 24.25103816 -43.1875 23.75 C-44.31124023 23.72381592 -45.43498047 23.69763184 -46.59277344 23.6706543 C-47.64883789 23.62980713 -48.70490234 23.58895996 -49.79296875 23.546875 C-51.22419067 23.49805176 -51.22419067 23.49805176 -52.68432617 23.44824219 C-53.44849854 23.30032227 -54.2126709 23.15240234 -55 23 C-57 20 -57 20 -57 17 C-56.09870361 16.9906543 -55.19740723 16.98130859 -54.26879883 16.97167969 C-50.85938277 16.92713214 -47.45112322 16.86528946 -44.04223633 16.79248047 C-42.57913271 16.76460573 -41.11588788 16.74322837 -39.65258789 16.72900391 C-28.07532427 16.6098554 -15.13386929 16.01998279 -6 8 C-3.86290442 5.42160162 -1.89115611 2.76296567 0 0 Z " fill="#08BA5C" transform="translate(221,136)"/>
<path d="M0 0 C1.2065625 0.0309375 1.2065625 0.0309375 2.4375 0.0625 C1.1175 0.3925 -0.2025 0.7225 -1.5625 1.0625 C-1.54678955 2.29403809 -1.5310791 3.52557617 -1.51489258 4.79443359 C-1.46069411 9.35279835 -1.42618678 13.9111345 -1.39770508 18.46972656 C-1.38259538 20.44471013 -1.36210672 22.41966004 -1.33618164 24.39453125 C-1.29989381 27.22925106 -1.28279584 30.06352826 -1.26953125 32.8984375 C-1.25404739 33.78493988 -1.23856354 34.67144226 -1.22261047 35.58480835 C-1.22238388 36.40550812 -1.22215729 37.22620789 -1.22192383 38.07177734 C-1.21526199 38.79569672 -1.20860016 39.51961609 -1.20173645 40.26547241 C-1.5625 42.0625 -1.5625 42.0625 -4.5625 44.0625 C-6.82421875 44.2578125 -6.82421875 44.2578125 -9.25 44.1875 C-10.05824219 44.16945312 -10.86648437 44.15140625 -11.69921875 44.1328125 C-12.31410156 44.10960937 -12.92898437 44.08640625 -13.5625 44.0625 C-13.5625 44.7225 -13.5625 45.3825 -13.5625 46.0625 C-12.89863281 45.97871094 -12.23476562 45.89492187 -11.55078125 45.80859375 C-2.78042619 44.79712214 -2.78042619 44.79712214 1.4375 46.0625 C1.7675 45.0725 2.0975 44.0825 2.4375 43.0625 C2.4375 44.7125 2.4375 46.3625 2.4375 48.0625 C-5.8125 48.0625 -14.0625 48.0625 -22.5625 48.0625 C-23.5625 44.0625 -23.5625 44.0625 -22.5625 42.0625 C-16.2925 42.0625 -10.0225 42.0625 -3.5625 42.0625 C-3.57410156 39.11441406 -3.58570313 36.16632813 -3.59765625 33.12890625 C-3.60544616 30.28605253 -3.6115233 27.44319998 -3.61743164 24.6003418 C-3.62247267 22.61856559 -3.62930538 20.63679311 -3.63793945 18.6550293 C-3.65001515 15.81297891 -3.65573045 12.97097753 -3.66015625 10.12890625 C-3.66531754 9.23724258 -3.67047882 8.34557892 -3.67579651 7.42689514 C-3.67599177 5.30509399 -3.6246003 3.1833922 -3.5625 1.0625 C-2.5625 0.0625 -2.5625 0.0625 0 0 Z " fill="#1AAA66" transform="translate(242.5625,110.9375)"/>
<path d="M0 0 C7.50772256 0.0418309 15.01471351 0.11431537 22.52197266 0.20751953 C25.07268664 0.23564171 27.62348635 0.25689949 30.17431641 0.27099609 C33.85363377 0.29254618 37.53192981 0.33926135 41.2109375 0.390625 C42.34050873 0.39185364 43.47007996 0.39308228 44.63388062 0.39434814 C52.82545158 0.54385919 59.9148655 1.91123977 66.5625 6.9375 C68.25958732 9.37245137 68.84800895 11.03617449 69 14 C68.34 14.99 67.68 15.98 67 17 C67.31730524 20.63939932 67.31730524 20.63939932 68 24 C67.34 24 66.68 24 66 24 C65.81824219 23.44570312 65.63648438 22.89140625 65.44921875 22.3203125 C65.19785156 21.59585938 64.94648438 20.87140625 64.6875 20.125 C64.44386719 19.40570313 64.20023437 18.68640625 63.94921875 17.9453125 C63.03664453 15.66005095 63.03664453 15.66005095 60 14 C60 13.34 60 12.68 60 12 C59.34 12 58.68 12 58 12 C58 11.34 58 10.68 58 10 C56.02 9.67 54.04 9.34 52 9 C52.33 8.34 52.66 7.68 53 7 C55.64 7.33 58.28 7.66 61 8 C58.8614515 5.8614515 57.86724686 5.57344937 55 5 C55 4.34 55 3.68 55 3 C36.85 2.67 18.7 2.34 0 2 C0 1.34 0 0.68 0 0 Z " fill="#0B9D56" transform="translate(144,92)"/>
<path d="M0 0 C1.27327904 -0.00021904 1.27327904 -0.00021904 2.57228088 -0.0004425 C5.38594086 0.00025573 8.19953514 0.00804399 11.01318359 0.01586914 C12.96088627 0.01773364 14.90858941 0.01915739 16.85629272 0.02015686 C21.98882334 0.02397956 27.12132576 0.03380775 32.25384521 0.04486084 C37.48872496 0.05508027 42.72360925 0.05965562 47.95849609 0.06469727 C58.23455016 0.07543022 68.51058329 0.09250369 78.78662109 0.11352539 C78.78662109 0.77352539 78.78662109 1.43352539 78.78662109 2.11352539 C77.14623871 2.12898659 77.14623871 2.12898659 75.47271729 2.14476013 C65.17260624 2.24246646 54.87255598 2.345198 44.5725441 2.45286465 C39.27706222 2.50805671 33.98157478 2.56147084 28.68603516 2.61083984 C23.57669006 2.65853812 18.46741186 2.71088302 13.35814667 2.76646614 C11.40770888 2.78686491 9.45725276 2.80558208 7.50678253 2.82259941 C4.77740346 2.8466982 2.04815044 2.87674539 -0.68115234 2.90820312 C-1.48963623 2.91395859 -2.29812012 2.91971405 -3.13110352 2.92564392 C-6.6544374 2.97187965 -9.82199858 3.16972841 -13.21337891 4.11352539 C-9.06444179 -0.22399978 -5.80829482 -0.02589831 0 0 Z " fill="#1EAC68" transform="translate(158.21337890625,70.886474609375)"/>
<path d="M0 0 C0.66 0.33 1.32 0.66 2 1 C2.03758423 2.66385742 2.03758423 2.66385742 2.07592773 4.36132812 C2.17063477 8.50628731 2.27069671 12.6511034 2.37231445 16.79589844 C2.41542539 18.58427566 2.45711546 20.37268776 2.49731445 22.16113281 C2.55559951 24.74294511 2.61912088 27.32458568 2.68359375 29.90625 C2.70866249 31.09112 2.70866249 31.09112 2.73423767 32.29992676 C2.86444514 37.26260329 3.31187519 42.0827238 4 47 C3.34 47 2.68 47 2 47 C1.67 45.35 1.34 43.7 1 42 C0.34 42 -0.32 42 -1 42 C-1.02464638 36.17928378 -1.0428343 30.35859766 -1.05493164 24.5378418 C-1.05997267 22.55606559 -1.06680538 20.57429311 -1.07543945 18.5925293 C-1.08751515 15.75047891 -1.09323045 12.90847753 -1.09765625 10.06640625 C-1.10281754 9.17474258 -1.10797882 8.28307892 -1.11329651 7.36439514 C-1.11349177 5.24259399 -1.0621003 3.1208922 -1 1 C-0.67 0.67 -0.34 0.34 0 0 Z " fill="#01BD61" transform="translate(140,103)"/>
<path d="M0 0 C1.31823302 0.59155331 2.62947051 1.19871463 3.9375 1.8125 C5.03384766 2.31716797 5.03384766 2.31716797 6.15234375 2.83203125 C8 4 8 4 9 7 C11.97 7.33 14.94 7.66 18 8 C18.33 6.68 18.66 5.36 19 4 C22.3 4 25.6 4 29 4 C26.9927092 7.0109362 26.16115776 7.63016497 23 9 C25.64 8.67 28.28 8.34 31 8 C31 7.67 31 7.34 31 7 C32.65 7 34.3 7 36 7 C32.88611563 10.80585868 29.27420509 11.76376474 24.48046875 12.26171875 C14.85077568 12.65229371 8.37393378 9.63342049 1.21484375 3.3671875 C0 2 0 2 0 0 Z " fill="#15AC69" transform="translate(171,134)"/>
<path d="M0 0 C3.56590231 2.8551896 4.89376108 4.27524494 5.56762695 8.87231445 C5.56684203 10.36953681 5.53898147 11.86691736 5.48828125 13.36328125 C5.48120651 14.15526413 5.47413177 14.94724701 5.46684265 15.76322937 C5.43896244 18.28063389 5.376242 20.79577356 5.3125 23.3125 C5.28740861 25.0240563 5.26459691 26.73564765 5.24414062 28.44726562 C5.18915747 32.63237654 5.10293418 36.81580496 5 41 C4.01 41 3.02 41 2 41 C1.97494385 39.86457764 1.9498877 38.72915527 1.92407227 37.55932617 C1.82994424 33.34924919 1.72973663 29.13933512 1.62768555 24.92944336 C1.58435713 23.10689096 1.54268053 21.28429852 1.50268555 19.46166992 C1.44493238 16.84281339 1.38125244 14.22415805 1.31640625 11.60546875 C1.29969376 10.78974899 1.28298126 9.97402924 1.26576233 9.1335907 C1.17986755 5.85820456 1.04247866 3.12743599 0 0 Z " fill="#06AE4C" transform="translate(140,101)"/>
<path d="M0 0 C-3.81206312 1.7697771 -6.76775622 2.23827942 -10.95703125 2.1953125 C-12.06884766 2.18886719 -13.18066406 2.18242187 -14.32617188 2.17578125 C-16.0519043 2.15064453 -16.0519043 2.15064453 -17.8125 2.125 C-18.98232422 2.11597656 -20.15214844 2.10695312 -21.35742188 2.09765625 C-24.23849053 2.07413732 -27.11913989 2.04126852 -30 2 C-30.33 2.66 -30.66 3.32 -31 4 C-30.07058594 3.98839844 -29.14117187 3.97679687 -28.18359375 3.96484375 C-15.90509666 3.87521968 -15.90509666 3.87521968 -10 5 C-10 5.33 -10 5.66 -10 6 C-13.79152334 6.0867982 -17.58279296 6.14032207 -21.375 6.1875 C-22.45523438 6.21263672 -23.53546875 6.23777344 -24.6484375 6.26367188 C-26.1953125 6.27817383 -26.1953125 6.27817383 -27.7734375 6.29296875 C-28.72653809 6.3086792 -29.67963867 6.32438965 -30.66162109 6.34057617 C-31.43328613 6.22818604 -32.20495117 6.1157959 -33 6 C-35 3 -35 3 -35 0 C-30.49786378 -0.16773186 -25.99555027 -0.32827877 -21.49291992 -0.48217773 C-19.96127431 -0.53554122 -18.42969573 -0.59086614 -16.89819336 -0.64819336 C-14.69659883 -0.73026252 -12.49485949 -0.80527067 -10.29296875 -0.87890625 C-9.26625313 -0.91945885 -9.26625313 -0.91945885 -8.21879578 -0.96083069 C-5.1530145 -1.05703182 -2.94080618 -0.98026873 0 0 Z " fill="#1BAF62" transform="translate(199,153)"/>
<path d="M0 0 C0.66 0.33 1.32 0.66 2 1 C1.67 14.53 1.34 28.06 1 42 C1.66 42 2.32 42 3 42 C3.33 44.31 3.66 46.62 4 49 C0.84873713 46.42169402 0.03031443 43.89447282 -1 40 C-1.26686729 36.96943236 -1.25714658 33.95858751 -1.23046875 30.91796875 C-1.22978142 29.63579216 -1.22978142 29.63579216 -1.2290802 28.32771301 C-1.22607227 26.53169353 -1.21822998 24.73567632 -1.20581055 22.93969727 C-1.18744416 20.17910631 -1.18530181 17.41884908 -1.18554688 14.65820312 C-1.18063531 12.91145541 -1.17480857 11.16470998 -1.16796875 9.41796875 C-1.16685593 8.58887497 -1.1657431 7.75978119 -1.16459656 6.90556335 C-1.11608383 1.11608383 -1.11608383 1.11608383 0 0 Z " fill="#20A664" transform="translate(138,103)"/>
<path d="M0 0 C4.82029598 3.85623679 4.82029598 3.85623679 5.33203125 7.11328125 C5.3145776 9.07856214 5.16596091 11.04166127 5 13 C3.35 13.33 1.7 13.66 0 14 C-2.01969485 11.42947929 -3.54254977 8.91490045 -5 6 C-5.66 5.34 -6.32 4.68 -7 4 C-6.030625 3.71125 -5.06125 3.4225 -4.0625 3.125 C-0.89335797 2.35785318 -0.89335797 2.35785318 0 0 Z " fill="#0EB365" transform="translate(240,73)"/>
<path d="M0 0 C10.23 0 20.46 0 31 0 C31 0.99 31 1.98 31 3 C29.02 3 27.04 3 25 3 C25 3.66 25 4.32 25 5 C21.42378622 6.19207126 19.40004208 5.42211296 15.828125 4.546875 C10.28586188 3.47516666 4.62815268 3.30422447 -1 3 C-0.67 2.01 -0.34 1.02 0 0 Z " fill="#02BE61" transform="translate(169,154)"/>
<path d="M0 0 C2.4375 0.375 2.4375 0.375 4.4375 2.375 C4.5625 5.5 4.5625 5.5 4.4375 8.375 C1.625 9.5 1.625 9.5 -1.5625 10.375 C-4.5625 8.375 -4.5625 8.375 -5.4375 6.5 C-5.5625 4.375 -5.5625 4.375 -4.4375 2.125 C-2.5625 0.375 -2.5625 0.375 0 0 Z " fill="#5D76D2" transform="translate(242.5625,96.625)"/>
<path d="M0 0 C2.79291214 2.79291214 2.60471516 5.61946329 2.875 9.375 C2.98328125 10.38433594 2.98328125 10.38433594 3.09375 11.4140625 C3.36322322 15.01649392 3.30916183 16.61566941 1.0078125 19.4765625 C0.01394531 20.23066406 0.01394531 20.23066406 -1 21 C-1.144375 20.030625 -1.28875 19.06125 -1.4375 18.0625 C-1.67562341 15.13513227 -1.67562341 15.13513227 -3 14 C-2.86759248 9.07036605 -2.16137791 4.46684769 0 0 Z " fill="#05BC66" transform="translate(170,108)"/>
<path d="M0 0 C1 3 1 3 1 5 C2.32 5 3.64 5 5 5 C5 4.34 5 3.68 5 3 C5.66 3 6.32 3 7 3 C6.01 6.3 5.02 9.6 4 13 C3.34 13 2.68 13 2 13 C2 14.98 2 16.96 2 19 C2.66 19 3.32 19 4 19 C4.66 21.64 5.32 24.28 6 27 C1.28983101 22.59371288 0.87521394 19.46343555 0.5 13.125 C0.29730237 9.71533637 0.09547275 6.46354531 -0.59375 3.1171875 C-0.7278125 2.41851562 -0.861875 1.71984375 -1 1 C-0.67 0.67 -0.34 0.34 0 0 Z " fill="#119872" transform="translate(171,104)"/>
<path d="M0 0 C2 3 2 3 3.6875 6.5 C5.96695868 10.51659262 8.58248636 11.62904749 13 13 C14.98821313 13.39764263 16.98732362 13.75455166 19 14 C18.67 15.65 18.34 17.3 18 19 C16.35 19.33 14.7 19.66 13 20 C13.99 19.67 14.98 19.34 16 19 C14.62514468 17.45833358 14.62514468 17.45833358 13 16 C12.34 16 11.68 16 11 16 C11 15.34 11 14.68 11 14 C10.41734375 13.87753906 9.8346875 13.75507813 9.234375 13.62890625 C5.54839017 12.59141751 2.54513 10.88868749 0 8 C-0.61858655 5.09533271 -0.35624598 3.00264465 0 0 Z " fill="#0FA760" transform="translate(143,139)"/>
<path d="M0 0 C0.33 0 0.66 0 1 0 C1.55353075 13.6332574 1.55353075 13.6332574 -2 20 C-3.61949011 17.42786866 -4.04408751 16.32330841 -3.625 13.25 C-3.41875 12.5075 -3.2125 11.765 -3 11 C-3.66 10.67 -4.32 10.34 -5 10 C-5.33 10.66 -5.66 11.32 -6 12 C-6 9.36 -6 6.72 -6 4 C-5.34 3.67 -4.68 3.34 -4 3 C-3.34 4.32 -2.68 5.64 -2 7 C-1.34 4.69 -0.68 2.38 0 0 Z " fill="#0BB169" transform="translate(218,113)"/>
<path d="M0 0 C0.9200425 3.06212618 0.99980368 5.57089965 0.8125 8.75 C0.72436202 15.37993459 3.41952579 19.62928868 7 25 C6.34 25.33 5.68 25.66 5 26 C1.04102568 21.72847508 -0.74875245 18.68748885 -2 13 C-2.66 13 -3.32 13 -4 13 C-4 11.02 -4 9.04 -4 7 C-3.34 7 -2.68 7 -2 7 C-1.34 4.69 -0.68 2.38 0 0 Z M-3 8 C-2 12 -2 12 -2 12 Z " fill="#4176D0" transform="translate(177,110)"/>
<path d="M0 0 C0.66 0 1.32 0 2 0 C2 0.99 2 1.98 2 3 C2.99 3 3.98 3 5 3 C4.67 4.98 4.34 6.96 4 9 C3.236875 9.0825 2.47375 9.165 1.6875 9.25 C-1.52373261 10.14615794 -2.29374499 11.21611025 -4 14 C-3.53328373 8.58609132 -2.75702189 4.79482068 0 0 Z " fill="#12B062" transform="translate(141,78)"/>
<path d="M0 0 C0.99 0.33 1.98 0.66 3 1 C2.67 3.97 2.34 6.94 2 10 C1.67 9.34 1.34 8.68 1 8 C-1.72426311 10.35277269 -2.8141763 12.62496331 -4 16 C-6.64 16 -9.28 16 -12 16 C-11.401875 15.731875 -10.80375 15.46375 -10.1875 15.1875 C-7.96854353 13.98292363 -6.66351425 12.88049437 -5 11 C-4.443125 10.38125 -3.88625 9.7625 -3.3125 9.125 C-1.72939705 6.56188094 -1.75336652 4.95960173 -2 2 C-1.34 2 -0.68 2 0 2 C0 1.34 0 0.68 0 0 Z " fill="#05BC5F" transform="translate(213,123)"/>
<path d="M0 0 C3 2 3 2 3.8125 4.4375 C4 7 4 7 2 10 C2.31730524 13.63939932 2.31730524 13.63939932 3 17 C2.34 17 1.68 17 1 17 C0.81824219 16.44570312 0.63648438 15.89140625 0.44921875 15.3203125 C0.07216797 14.23363281 0.07216797 14.23363281 -0.3125 13.125 C-0.55613281 12.40570313 -0.79976562 11.68640625 -1.05078125 10.9453125 C-1.96335547 8.66005095 -1.96335547 8.66005095 -5 7 C-5 6.34 -5 5.68 -5 5 C-5.66 4.67 -6.32 4.34 -7 4 C-4.23723823 4.52268466 -1.6739124 5.10869587 1 6 C0.67 4.02 0.34 2.04 0 0 Z " fill="#0F895E" transform="translate(209,99)"/>
<path d="M0 0 C0.66 0.99 1.32 1.98 2 3 C4.05925139 3.72382467 4.05925139 3.72382467 6 4 C5.01 5.485 5.01 5.485 4 7 C3.01 7 2.02 7 1 7 C1 7.66 1 8.32 1 9 C-0.32 9 -1.64 9 -3 9 C-3.33 7.02 -3.66 5.04 -4 3 C-2.68 2.01 -1.36 1.02 0 0 Z " fill="#0AB264" transform="translate(175,100)"/>
<path d="M0 0 C1.48206495 0.254496 2.96068615 0.52911762 4.4375 0.8125 C5.67306641 1.03873047 5.67306641 1.03873047 6.93359375 1.26953125 C7.95646484 1.63111328 7.95646484 1.63111328 9 2 C9.33 2.99 9.66 3.98 10 5 C10.66 5.33 11.32 5.66 12 6 C3.42857143 6.28571429 3.42857143 6.28571429 0 4 C0 2.68 0 1.36 0 0 Z " fill="#03BD63" transform="translate(179,137)"/>
<path d="M0 0 C-0.33 1.65 -0.66 3.3 -1 5 C0.32 5.33 1.64 5.66 3 6 C0.525 7.485 0.525 7.485 -2 9 C-2 7.68 -2 6.36 -2 5 C-2.99 5.495 -2.99 5.495 -4 6 C-5.99960012 6.039992 -8.00047242 6.04346799 -10 6 C-8.66666667 5 -7.33333333 4 -6 3 C-5.29875 2.443125 -4.5975 1.88625 -3.875 1.3125 C-2 0 -2 0 0 0 Z " fill="#16AF66" transform="translate(215,145)"/>
<path d="M0 0 C1.22874588 3.99557226 0.36481908 6.06610971 -1 10 C-1.26086115 12.73904204 -1.33066201 14.36072011 -0.0625 16.8125 C1.54028556 20.11235262 1.63600233 23.36002331 2 27 C-1.72010471 24.2944693 -2.28350988 20.29097974 -3 16 C-3.53881908 10.07299013 -2.08033331 5.46087494 0 0 Z " fill="#1EA465" transform="translate(169,107)"/>
<path d="M0 0 C2.97 0 5.94 0 9 0 C9 0.66 9 1.32 9 2 C9.66 2 10.32 2 11 2 C14.50850201 4.82391625 15.86115946 6.34851748 16.8125 10.8125 C16.874375 11.864375 16.93625 12.91625 17 14 C15 11 15 11 14.625 8.9375 C14.18464307 6.87772132 14.18464307 6.87772132 12.375 5.9375 C11.59125 5.628125 10.8075 5.31875 10 5 C3.21428571 2.14285714 3.21428571 2.14285714 0 0 Z " fill="#3F61BC" transform="translate(193,102)"/>
<path d="M0 0 C-3.93670488 1.31223496 -6.12488144 0.24296256 -10 -1 C-10 -1.66 -10 -2.32 -10 -3 C-14.29 -3 -18.58 -3 -23 -3 C-23 -3.33 -23 -3.66 -23 -4 C-14.09410916 -5.40619329 -7.88094994 -4.40104997 0 0 Z " fill="#1BA967" transform="translate(209,98)"/>
<path d="M0 0 C4.24223102 -0.3636198 6.58168085 0.4606772 10 3 C10 3.66 10 4.32 10 5 C7.1875 5.625 7.1875 5.625 4 6 C1 4 1 4 0.3125 1.875 C0.209375 1.25625 0.10625 0.6375 0 0 Z " fill="#03B962" transform="translate(149,153)"/>
<path d="M0 0 C2.475 0.99 2.475 0.99 5 2 C4.58578031 6.83256305 2.53586014 8.82679218 -1 12 C-1 9 -1 9 0 6 C0.99 6 1.98 6 3 6 C3 5.01 3 4.02 3 3 C2.01 3.33 1.02 3.66 0 4 C-0.66 3.34 -1.32 2.68 -2 2 C-1.34 1.34 -0.68 0.68 0 0 Z " fill="#1CAF6A" transform="translate(221,136)"/>
<path d="M0 0 C2.0625 0.4375 2.0625 0.4375 4 1 C4 2.98 4 4.96 4 7 C1.03 6.505 1.03 6.505 -2 6 C-1.125 1.125 -1.125 1.125 0 0 Z " fill="#5371FA" transform="translate(241,98)"/>
<path d="M0 0 C2.79872437 2.52788007 4.45773019 4.20411134 5 8 C3.68 8 2.36 8 1 8 C0.67 9.32 0.34 10.64 0 12 C-2.22151899 6.56962025 -2.22151899 6.56962025 -1.125 3.75 C-0.75375 3.1725 -0.3825 2.595 0 2 C0 1.34 0 0.68 0 0 Z " fill="#10AE64" transform="translate(212,102)"/>
<path d="M0 0 C0 1.32 0 2.64 0 4 C-0.7425 4.144375 -1.485 4.28875 -2.25 4.4375 C-4.52027739 4.90187492 -6.75759479 5.41863569 -9 6 C-8.67 4.35 -8.34 2.7 -8 1 C-2.25 0 -2.25 0 0 0 Z " fill="#03BE63" transform="translate(213,150)"/>
<path d="M0 0 C0.75 1.625 0.75 1.625 1 4 C-1.02291546 7.61234904 -2.53871879 9.6924792 -6 12 C-8.1875 11.625 -8.1875 11.625 -10 11 C-8.63875 10.2265625 -8.63875 10.2265625 -7.25 9.4375 C-3.48237384 6.96443733 -1.9915852 3.98317039 0 0 Z " fill="#18A86B" transform="translate(211,126)"/>
<path d="M0 0 C1.32 0 2.64 0 4 0 C4.76173392 4.3164922 5.16063604 7.74433453 4 12 C3.67 12 3.34 12 3 12 C3 9.69 3 7.38 3 5 C2.01 4.67 1.02 4.34 0 4 C-0.33 3.34 -0.66 2.68 -1 2 C-0.67 1.34 -0.34 0.68 0 0 Z " fill="#06904E" transform="translate(241,108)"/>
<path d="M0 0 C0.33 0 0.66 0 1 0 C1 3.3 1 6.6 1 10 C-1.475 9.01 -1.475 9.01 -4 8 C-3.67 5.69 -3.34 3.38 -3 1 C-2.67 1.99 -2.34 2.98 -2 4 C-1.34 4 -0.68 4 0 4 C0 2.68 0 1.36 0 0 Z " fill="#05BD65" transform="translate(142,84)"/>
<path d="M0 0 C1.31823302 0.59155331 2.62947051 1.19871463 3.9375 1.8125 C5.03384766 2.31716797 5.03384766 2.31716797 6.15234375 2.83203125 C8 4 8 4 9 7 C9.99 7.33 10.98 7.66 12 8 C12 8.66 12 9.32 12 10 C7.15853891 8.53289058 3.44051028 5.6487256 0 2 C0 1.34 0 0.68 0 0 Z " fill="#1CA466" transform="translate(171,134)"/>
<path d="M0 0 C0.33 0 0.66 0 1 0 C1.55353075 13.6332574 1.55353075 13.6332574 -2 20 C-2.66 18.68 -3.32 17.36 -4 16 C-3.01 15.67 -2.02 15.34 -1 15 C-0.67 10.05 -0.34 5.1 0 0 Z " fill="#17A465" transform="translate(218,113)"/>
<path d="M0 0 C0.60328125 0.40992188 1.2065625 0.81984375 1.828125 1.2421875 C2.62734375 1.78101563 3.4265625 2.31984375 4.25 2.875 C5.03890625 3.40867188 5.8278125 3.94234375 6.640625 4.4921875 C8.71555692 5.81822015 10.77614972 6.94928175 13 8 C10.34889421 9.32555289 9.30451612 8.77065982 6.5 7.9375 C2.23091861 6.47107397 2.23091861 6.47107397 0.4375 2.8125 C0.293125 1.884375 0.14875 0.95625 0 0 Z " fill="#079260" transform="translate(177,131)"/>
<path d="M0 0 C2.64 0 5.28 0 8 0 C7.38125 0.433125 6.7625 0.86625 6.125 1.3125 C3.7802755 2.99740483 3.7802755 2.99740483 2 6 C1.01 5.67 0.02 5.34 -1 5 C-0.67 3.35 -0.34 1.7 0 0 Z " fill="#05BE79" transform="translate(191,95)"/>
<path d="M0 0 C3.4375 0.25 3.4375 0.25 7 1 C7.66 1.99 8.32 2.98 9 4 C1.25 3.25 1.25 3.25 -1 1 C-0.67 0.67 -0.34 0.34 0 0 Z " fill="#14A870" transform="translate(197,99)"/>
<path d="M0 0 C1.32 0.66 2.64 1.32 4 2 C-2.625 5 -2.625 5 -6 5 C-5.67 4.01 -5.34 3.02 -5 2 C-3 1.375 -3 1.375 -1 1 C-0.67 0.67 -0.34 0.34 0 0 Z " fill="#1BAA65" transform="translate(209,153)"/>
<path d="M0 0 C0.99 0.33 1.98 0.66 3 1 C2.67 2.32 2.34 3.64 2 5 C0.35 5.33 -1.3 5.66 -3 6 C-2.67 4.68 -2.34 3.36 -2 2 C-1.34 2 -0.68 2 0 2 C0 1.34 0 0.68 0 0 Z " fill="#06C158" transform="translate(237,71)"/>
<path d="M0 0 C1.32 0.33 2.64 0.66 4 1 C4.33 2.32 4.66 3.64 5 5 C3.68 5.33 2.36 5.66 1 6 C0.67 4.02 0.34 2.04 0 0 Z " fill="#03C452" transform="translate(150,73)"/>
<path d="M0 0 C0 0.99 0 1.98 0 3 C-2.5 5.1875 -2.5 5.1875 -5 7 C-5.33 6.34 -5.66 5.68 -6 5 C-5.34 5 -4.68 5 -4 5 C-3.896875 4.360625 -3.79375 3.72125 -3.6875 3.0625 C-3.460625 2.381875 -3.23375 1.70125 -3 1 C-2.01 0.67 -1.02 0.34 0 0 Z " fill="#5777DC" transform="translate(207,128)"/>
<path d="M0 0 C1.98 0 3.96 0 6 0 C5.34 1.32 4.68 2.64 4 4 C3.01 4 2.02 4 1 4 C0.67 2.68 0.34 1.36 0 0 Z " fill="#09BC5A" transform="translate(237,81)"/>
<path d="" fill="#808080" transform="translate(0,0)"/>
</svg>
