<?xml version="1.0" encoding="UTF-8"?>
<svg version="1.1" xmlns="http://www.w3.org/2000/svg" width="448" height="223">
<path d="M0 0 C0.83775467 -0.00978378 1.67550934 -0.01956757 2.53865051 -0.02964783 C5.31318578 -0.0595799 8.08767292 -0.0809814 10.86230469 -0.09985352 C12.28482166 -0.10971126 12.28482166 -0.10971126 13.73607635 -0.11976814 C18.75616464 -0.15235251 23.77623178 -0.17680538 28.79638672 -0.19628906 C32.94806835 -0.21410046 37.09907055 -0.2489193 41.25048828 -0.29882812 C46.266094 -0.35905397 51.28106987 -0.38976797 56.29701996 -0.39946175 C58.20599445 -0.40801348 60.11495225 -0.42682471 62.02371979 -0.45620537 C64.70015027 -0.49518331 67.37413359 -0.49614694 70.05078125 -0.48828125 C70.83441544 -0.50828186 71.61804962 -0.52828247 72.4254303 -0.54888916 C77.80401167 -0.47817973 80.5444404 1.02155359 84.46841049 4.67469692 C86.24875013 6.75037868 86.71000974 8.30013016 86.78417969 11.02124023 C86.82542969 11.79081055 86.86667969 12.56038086 86.90917969 13.35327148 C86.78417969 15.20874023 86.78417969 15.20874023 85.78417969 16.20874023 C84.11800854 16.24937856 82.45029874 16.25146124 80.78417969 16.20874023 C80.35105469 15.09499023 79.91792969 13.98124023 79.47167969 12.83374023 C78.08506849 9.0336169 78.08506849 9.0336169 74.78417969 7.20874023 C72.21888781 7.00441412 69.76124531 6.91501729 67.19506836 6.91821289 C66.42398239 6.91149567 65.65289642 6.90477844 64.85844421 6.89785767 C62.30628025 6.87884194 59.75437886 6.87495145 57.20214844 6.87280273 C55.42718904 6.86637638 53.65223072 6.85964814 51.87727356 6.85263062 C48.15407862 6.84064827 44.43097653 6.83695068 40.70776367 6.83813477 C35.94281138 6.8383378 31.17845655 6.81105604 26.41364574 6.77659035 C22.74613221 6.75432144 19.07876234 6.75029725 15.41118813 6.75135422 C13.65495053 6.74899746 11.89870902 6.74016969 10.14253807 6.72468948 C7.68176211 6.70503288 5.22227249 6.7108659 2.76147461 6.72290039 C2.03970032 6.71166138 1.31792603 6.70042236 0.57427979 6.68884277 C-4.47023394 6.75134722 -7.36444946 7.98531835 -11.21582031 11.20874023 C-13.08439033 14.81701337 -14.27659396 18.27949972 -15.21582031 22.20874023 C-14.56151031 22.19985779 -13.90720032 22.19097534 -13.23306274 22.18182373 C-6.38674711 22.092925 0.45940297 22.03283006 7.30615234 21.98901367 C9.85700141 21.96897152 12.40780496 21.9417303 14.95849609 21.90698242 C18.63748448 21.85813994 22.31586228 21.83569642 25.99511719 21.81811523 C27.12468842 21.79747009 28.25425964 21.77682495 29.4180603 21.7555542 C38.06039388 21.75313737 46.81866652 23.35086226 53.40136719 29.48217773 C58.62294053 36.0017693 61.76906131 43.21174645 61.23730469 51.61108398 C59.84765229 59.57762577 55.6098509 66.76482303 48.98339844 71.49389648 C41.76035467 75.80916246 33.63872325 76.44383497 25.43261719 74.71264648 C17.45421236 71.98643479 12.61884959 66.51141837 8.78417969 59.20874023 C6.32928779 51.84406455 6.71292699 43.40192583 10.15917969 36.45874023 C11.55934075 33.98594117 12.76966428 32.22325564 14.78417969 30.20874023 C14.00965958 30.19843277 13.23513947 30.18812531 12.43714905 30.17750549 C5.15289048 30.07969727 -2.13127977 29.97720713 -9.41539669 29.86940098 C-13.16060829 29.81413793 -16.90582765 29.76071268 -20.65112305 29.71142578 C-24.26270617 29.66383189 -27.87419163 29.61149117 -31.48565865 29.55579948 C-32.86639551 29.53535329 -34.24715917 29.51664402 -35.62794304 29.49966621 C-37.55565345 29.47567243 -39.4832778 29.44503759 -41.41088867 29.4140625 C-42.5100914 29.39851822 -43.60929413 29.38297394 -44.74180603 29.36695862 C-47.21582031 29.20874023 -47.21582031 29.20874023 -48.21582031 28.20874023 C-48.34082031 25.70874023 -48.34082031 25.70874023 -48.21582031 23.20874023 C-47.21582031 22.20874023 -47.21582031 22.20874023 -44.71557617 22.09521484 C-43.63155518 22.10045166 -42.54753418 22.10568848 -41.43066406 22.11108398 C-39.67592773 22.11591797 -39.67592773 22.11591797 -37.88574219 22.12084961 C-36.03819336 22.13341797 -36.03819336 22.13341797 -34.15332031 22.14624023 C-32.2999707 22.15300781 -32.2999707 22.15300781 -30.40917969 22.15991211 C-27.34467914 22.17174416 -24.2802731 22.1882285 -21.21582031 22.20874023 C-21.24933594 20.97510742 -21.28285156 19.74147461 -21.31738281 18.47045898 C-21.31000091 12.88358708 -19.59210599 8.71531834 -15.71972656 4.63061523 C-10.66342803 0.24260553 -6.41261306 0.04722804 0 0 Z M17.78417969 37.20874023 C14.63237275 42.49927331 13.17681873 47.12751823 14.47167969 53.20874023 C16.33013935 59.5858077 19.63409004 63.96477434 25.37011719 67.29467773 C31.19234354 69.49921004 37.42438817 69.02394094 43.22167969 67.02124023 C48.16321918 63.52600498 51.71942362 59.96832294 53.78417969 54.20874023 C54.59419802 48.33116816 54.13942529 43.23700576 51.19433594 38.03295898 C47.97507113 33.86842529 43.75425908 30.86543337 38.78417969 29.20874023 C29.68450093 28.39431115 23.9018291 30.09903956 17.78417969 37.20874023 Z " fill="#FCFCFC" transform="translate(76.2158203125,50.791259765625)"/>
<path d="M0 0 C4.67084033 2.67783139 8.07281168 5.8963293 9.640625 11.12890625 C10.3832031 16.37336405 10.46674803 21.29565234 7.953125 26.06640625 C3.69007172 31.71207141 0.10939055 33.79036199 -6.796875 34.94140625 C-11.93357229 35.31726215 -15.80407475 34.13121086 -20.171875 31.31640625 C-24.66488679 26.82339446 -25.9862657 22.94635312 -26.4140625 16.6875 C-26.30833435 11.7409332 -25.0835456 7.99540225 -21.703125 4.3359375 C-15.5319381 -1.16844743 -8.00233146 -2.95450317 0 0 Z " fill="#5371F9" transform="translate(118.359375,82.87109375)"/>
<path d="M0 0 C2.95003206 0.13257824 2.95003206 0.13257824 5.5 -0.6875 C8 -1 8 -1 9.63354492 0.12207031 C11.52750735 2.7249574 11.37255152 4.53437643 11.36328125 7.734375 C11.36263672 8.86617187 11.36199219 9.99796875 11.36132812 11.1640625 C11.34521484 12.34742187 11.32910156 13.53078125 11.3125 14.75 C11.31733398 16.50183594 11.31733398 16.50183594 11.32226562 18.2890625 C11.2854824 24.18775388 11.21313116 29.49006656 9 35 C4.78095748 39.11086194 1.40709295 40.14789662 -4.375 40.1875 C-5.31085938 40.20167969 -6.24671875 40.21585938 -7.2109375 40.23046875 C-10.20789895 39.98282067 -12.3340623 39.38251282 -15 38 C-15.9375 35.5 -15.9375 35.5 -16 33 C-15.34 32.34 -14.68 31.68 -14 31 C-11.99279077 31.28674418 -9.99369031 31.63079809 -8 32 C-5.32602531 32.09137683 -2.67670434 32.04615007 0 32 C0.33 31.01 0.66 30.02 1 29 C0.01 29.33 -0.98 29.66 -2 30 C-7.23503836 30.39509723 -10.59928724 29.93380851 -15 27 C-19.01701493 22.44014521 -20.26052014 17.97112162 -20 12 C-18.43201564 6.77338546 -16.19774378 3.48105582 -12 0 C-8.23657565 -1.81682555 -3.99070572 -0.57010082 0 0 Z M-9.375 7.5 C-11.50573232 10.77804972 -11.93155629 13.0987084 -12 17 C-11.18792354 19.96493065 -11.18792354 19.96493065 -9 22 C-5.39303764 23.04929814 -3.15281565 23.45505881 0.375 22.0625 C2.80350366 18.98016843 3.17090397 15.81190154 3 12 C2.20572041 8.98049847 2.20572041 8.98049847 0 7 C-3.87556789 5.8020972 -5.87664703 5.29051392 -9.375 7.5 Z " fill="#FBFBFB" transform="translate(274,99)"/>
<path d="M0 0 C2.5 1.5625 2.5 1.5625 4 3 C4.33 2.525625 4.66 2.05125 5 1.5625 C8.01562873 -0.79345995 11.2840451 -1.00725772 15 -1 C18.91973067 0.02253843 19.70689866 0.56034798 22 4 C23.35557884 8.64157058 23.14794852 13.39508372 23.125 18.1875 C23.13080078 19.41629883 23.13080078 19.41629883 23.13671875 20.66992188 C23.12671604 26.74656792 23.12671604 26.74656792 22 29 C20.00045254 29.04254356 17.99958364 29.04080783 16 29 C14.38219843 27.38219843 14.77727853 25.54364482 14.68359375 23.30859375 C14.64169922 22.36435547 14.59980469 21.42011719 14.55664062 20.44726562 C14.51732422 19.45404297 14.47800781 18.46082031 14.4375 17.4375 C14.39431641 16.44041016 14.35113281 15.44332031 14.30664062 14.41601562 C14.20019702 11.9441585 14.09818072 9.4721969 14 7 C11.36 7 8.72 7 6 7 C5.98018066 7.59538574 5.96036133 8.19077148 5.93994141 8.80419922 C5.84483874 11.49492153 5.73510158 14.18485148 5.625 16.875 C5.57859375 18.28072266 5.57859375 18.28072266 5.53125 19.71484375 C5.49257812 20.61074219 5.45390625 21.50664063 5.4140625 22.4296875 C5.3826416 23.25710449 5.3512207 24.08452148 5.31884766 24.93701172 C5 27 5 27 3 29 C0.4375 29.1875 0.4375 29.1875 -2 29 C-4.34230723 26.65769277 -3.41072375 19.96485983 -3.51757812 16.61328125 C-3.56881836 15.41638672 -3.56881836 15.41638672 -3.62109375 14.1953125 C-3.6461499 13.46328613 -3.67120605 12.73125977 -3.69702148 11.97705078 C-3.90611552 9.68337753 -3.90611552 9.68337753 -6 7 C-9.08365871 6.7497843 -9.08365871 6.7497843 -12 7 C-12.01981934 7.59538574 -12.03963867 8.19077148 -12.06005859 8.80419922 C-12.15516126 11.49492153 -12.26489842 14.18485148 -12.375 16.875 C-12.42140625 18.28072266 -12.42140625 18.28072266 -12.46875 19.71484375 C-12.52675781 21.05869141 -12.52675781 21.05869141 -12.5859375 22.4296875 C-12.6173584 23.25710449 -12.6487793 24.08452148 -12.68115234 24.93701172 C-13 27 -13 27 -15 29 C-17.5625 29.1875 -17.5625 29.1875 -20 29 C-21.80279191 27.19720809 -21.13036605 24.45952299 -21.1328125 22.03125 C-21.13410156 20.82082031 -21.13539063 19.61039063 -21.13671875 18.36328125 C-21.13285156 17.08839844 -21.12898437 15.81351563 -21.125 14.5 C-21.12886719 13.22511719 -21.13273438 11.95023438 -21.13671875 10.63671875 C-21.13542969 9.42628906 -21.13414062 8.21585938 -21.1328125 6.96875 C-21.13168457 5.84919922 -21.13055664 4.72964844 -21.12939453 3.57617188 C-21 1 -21 1 -20 0 C-18.33394172 -0.0450286 -16.66621616 -0.03874921 -15 0 C0 0 0 0 0 0 Z " fill="#FCFCFC" transform="translate(194,99)"/>
<path d="M0 0 C3.37415953 0.50484584 6.19686548 0.75838647 9.5625 -0.0625 C10.7690625 -0.248125 10.7690625 -0.248125 12 -0.4375 C14 1.5625 14 1.5625 14.24291992 4.25219727 C14.23675659 5.92366821 14.23675659 5.92366821 14.23046875 7.62890625 C14.22853516 8.83611328 14.22660156 10.04332031 14.22460938 11.28710938 C14.20624023 13.18686523 14.20624023 13.18686523 14.1875 15.125 C14.18685547 16.39537109 14.18621094 17.66574219 14.18554688 18.97460938 C14.14010053 28.42239947 14.14010053 28.42239947 13 29.5625 C11.00045254 29.60504356 8.99958364 29.60330783 7 29.5625 C4.78918149 29.45709074 4.78918149 29.45709074 2 30.5625 C-3.75840109 31.11619241 -7.58008646 30.20578791 -12 26.5625 C-15.82016805 21.51001968 -15.82477983 15.65318185 -15 9.5625 C-11.84126374 3.24502749 -7.35691893 -1.12861825 0 0 Z M-5.25 8.1875 C-7.42462878 11.13878192 -7.92670036 12.89751822 -8 16.5625 C-7.18292938 19.94687013 -7.18292938 19.94687013 -5 22.5625 C-1.60030189 23.8934316 -1.60030189 23.8934316 2 23.5625 C5.05275254 21.55411017 5.8351987 20.11576149 6.875 16.625 C7.01169953 13.27586159 6.62033144 11.4790966 5 8.5625 C1.07829222 5.94802815 -1.30545265 5.33866025 -5.25 8.1875 Z " fill="#FCFCFC" transform="translate(236,98.4375)"/>
<path d="M0 0 C3.66092051 2.06216409 6.79391612 4.89931482 8 9 C8.1875 12.6875 8.1875 12.6875 8 16 C7 17 7 17 5.14233398 17.11352539 C4.35157471 17.10828857 3.56081543 17.10305176 2.74609375 17.09765625 C1.89208984 17.09443359 1.03808594 17.09121094 0.15820312 17.08789062 C-1.18854492 17.07532227 -1.18854492 17.07532227 -2.5625 17.0625 C-3.46419922 17.05798828 -4.36589844 17.05347656 -5.29492188 17.04882812 C-7.53001314 17.03700225 -9.76497437 17.0205222 -12 17 C-10.6910428 20.12197478 -10.6910428 20.12197478 -8 22 C-3.56284515 22.2063793 0.6213877 21.70057797 5 21 C5.33 22.65 5.66 24.3 6 26 C1.51295173 29.55869345 -2.02352207 30.3545388 -7.6484375 30.28125 C-12.45198805 29.70673897 -15.76985953 27.47616857 -18.875 23.75 C-20.90938026 18.77707048 -21.22196827 14.60926993 -20.5 9.375 C-18.57159025 5.03607807 -15.92484531 2.60490847 -12 0 C-7.80465573 -1.39844809 -4.27012435 -1.07117454 0 0 Z M-10.9375 7.3125 C-12.17760442 8.94972228 -12.17760442 8.94972228 -12 11 C-8.04 11 -4.08 11 0 11 C-0.66 9.68 -1.32 8.36 -2 7 C-6.65740552 5.61845304 -6.65740552 5.61845304 -10.9375 7.3125 Z " fill="#FCFCFC" transform="translate(354,99)"/>
<path d="M0 0 C3.32837886 1.81164925 5.50185694 4.11692822 7.375 7.4375 C8.09583783 10.39293509 8.2066617 12.96896167 8 16 C6.45049732 17.54950268 4.90009406 17.21655193 2.74609375 17.31640625 C1.89208984 17.35830078 1.03808594 17.40019531 0.15820312 17.44335938 C-1.18854492 17.50233398 -1.18854492 17.50233398 -2.5625 17.5625 C-3.46419922 17.60568359 -4.36589844 17.64886719 -5.29492188 17.69335938 C-7.52978485 17.79978142 -9.76476308 17.90179988 -12 18 C-9.19244358 21.24557384 -9.19244358 21.24557384 -5.1875 22.3125 C-1.77086994 21.97753627 1.61010831 21.54238267 5 21 C5.33 22.65 5.66 24.3 6 26 C1.51166045 29.55971758 -2.02345775 30.34928468 -7.6484375 30.28515625 C-12.32684106 29.71784153 -15.65906385 27.4303319 -18.875 24 C-21.25646909 19.76627718 -21.33272229 15.82447315 -21 11 C-19.10672504 5.7409029 -16.40216785 3.20991406 -12 0 C-7.80109914 -1.39963362 -4.27420317 -1.06490386 0 0 Z M-11.4375 7.875 C-13.09873174 9.69467209 -13.09873174 9.69467209 -13 11 C-8.71 11 -4.42 11 0 11 C-0.66 9.68 -1.32 8.36 -2 7 C-7.02728802 5.50263408 -7.02728802 5.50263408 -11.4375 7.875 Z " fill="#FCFCFC" transform="translate(386,99)"/>
<path d="M0 0 C1.16015625 0.10054688 1.16015625 0.10054688 2.34375 0.203125 C4.92663325 0.85820408 5.87266266 1.66621438 7.5 3.75 C8.49259618 6.72778854 8.62891582 8.71242951 8.6328125 11.8203125 C8.63474609 13.28791016 8.63474609 13.28791016 8.63671875 14.78515625 C8.63285156 15.80480469 8.62898438 16.82445313 8.625 17.875 C8.63080078 19.41607422 8.63080078 19.41607422 8.63671875 20.98828125 C8.63542969 21.96410156 8.63414062 22.93992187 8.6328125 23.9453125 C8.63168457 24.84266113 8.63055664 25.74000977 8.62939453 26.66455078 C8.5 28.75 8.5 28.75 7.5 29.75 C5.50041636 29.79080783 3.49954746 29.79254356 1.5 29.75 C0.35354088 27.45708176 0.31796574 25.98549641 0.21875 23.43359375 C0.18136719 22.58732422 0.14398438 21.74105469 0.10546875 20.86914062 C0.03500285 19.07747998 -0.03530898 17.28581328 -0.10546875 15.49414062 C-0.14285156 14.64916016 -0.18023437 13.80417969 -0.21875 12.93359375 C-0.24904297 12.15556396 -0.27933594 11.37753418 -0.31054688 10.57592773 C-0.30798236 8.73189917 -0.30798236 8.73189917 -1.5 7.75 C-3.95809998 7.4999227 -3.95809998 7.4999227 -6.5 7.75 C-8.84653846 10.09653846 -8.7696755 10.62619347 -8.87890625 13.8125 C-8.91306641 14.60914062 -8.94722656 15.40578125 -8.98242188 16.2265625 C-9.00884766 17.05929688 -9.03527344 17.89203125 -9.0625 18.75 C-9.12237701 20.39598081 -9.18600242 22.04183079 -9.25390625 23.6875 C-9.27783447 24.41839844 -9.3017627 25.14929688 -9.32641602 25.90234375 C-9.5 27.75 -9.5 27.75 -10.5 29.75 C-12.49954746 29.79254356 -14.50041636 29.79080783 -16.5 29.75 C-18.30279191 27.94720809 -17.63036605 25.20952299 -17.6328125 22.78125 C-17.63410156 21.57082031 -17.63539063 20.36039063 -17.63671875 19.11328125 C-17.63285156 17.83839844 -17.62898438 16.56351563 -17.625 15.25 C-17.62886719 13.97511719 -17.63273437 12.70023438 -17.63671875 11.38671875 C-17.63542969 10.17628906 -17.63414062 8.96585938 -17.6328125 7.71875 C-17.63168457 6.59919922 -17.63055664 5.47964844 -17.62939453 4.32617188 C-17.5 1.75 -17.5 1.75 -16.5 0.75 C-14.83394172 0.7049714 -13.16621616 0.71125079 -11.5 0.75 C-7.38870514 0.75 -4.10040258 -0.41004026 0 0 Z " fill="#FCFCFC" transform="translate(320.5,98.25)"/>
<path d="M0 0 C2.0625 0.25 2.0625 0.25 4 1 C5.15920492 3.31840984 5.12673288 4.65439131 5.12939453 7.234375 C5.13254669 8.10868164 5.13569885 8.98298828 5.13894653 9.88378906 C5.1369223 10.82963867 5.13489807 11.77548828 5.1328125 12.75 C5.13424759 14.2035791 5.13424759 14.2035791 5.13571167 15.68652344 C5.1363929 17.73763087 5.13454261 19.78874045 5.13037109 21.83984375 C5.12502205 24.98702823 5.13031804 28.13406998 5.13671875 31.28125 C5.13605796 33.27083365 5.13477677 35.26041721 5.1328125 37.25 C5.13483673 38.19584961 5.13686096 39.14169922 5.13894653 40.11621094 C5.13579437 40.99051758 5.13264221 41.86482422 5.12939453 42.765625 C5.12859894 43.53680664 5.12780334 44.30798828 5.12698364 45.10253906 C5 47 5 47 4 49 C-4.58 49 -13.16 49 -22 49 C-22 44 -22 44 -21 43 C-19.58429877 42.91348389 -18.164405 42.89295096 -16.74609375 42.90234375 C-15.46508789 42.90717773 -15.46508789 42.90717773 -14.15820312 42.91210938 C-13.26037109 42.92048828 -12.36253906 42.92886719 -11.4375 42.9375 C-10.53580078 42.94201172 -9.63410156 42.94652344 -8.70507812 42.95117188 C-6.46998686 42.96299775 -4.23502563 42.9794778 -2 43 C-2.01047363 41.76846191 -2.02094727 40.53692383 -2.03173828 39.26806641 C-2.06787089 34.70966485 -2.09087585 30.15127602 -2.10986328 25.59277344 C-2.11993627 23.61781691 -2.13359521 21.64287534 -2.15087891 19.66796875 C-2.17507039 16.83329582 -2.18646991 13.99881962 -2.1953125 11.1640625 C-2.20563507 10.27756012 -2.21595764 9.39105774 -2.22659302 8.47769165 C-2.2269907 6.31714048 -2.12272534 4.15706282 -2 2 C-1.34 1.34 -0.68 0.68 0 0 Z " fill="#FDFDFD" transform="translate(159,90)"/>
<path d="M0 0 C1.67542976 0.28604898 3.34385343 0.61781233 5 1 C5.01458252 2.08418213 5.02916504 3.16836426 5.04418945 4.28540039 C5.10243472 8.33178664 5.1796647 12.37763159 5.26245117 16.42358398 C5.29557767 18.17023899 5.32364737 19.91699788 5.34643555 21.66381836 C5.38020881 24.1838787 5.43253347 26.70299752 5.48828125 29.22265625 C5.49467117 29.99585709 5.5010611 30.76905792 5.50764465 31.56568909 C5.64579305 36.73200344 6.57017259 40.41273762 9 45 C13.07380422 48.425699 16.93019872 49.78324769 22 51 C22.5625 52.9375 22.5625 52.9375 23 55 C21.29207001 56.70792999 19.14456519 56.25270346 16.8125 56.3125 C11.67599221 56.2526959 8.90830975 55.53608977 5 52 C1.06825284 47.89684152 -1.12315172 44.59853746 -1.12939453 38.81982422 C-1.13254669 37.98240692 -1.13569885 37.14498962 -1.13894653 36.28219604 C-1.13591019 34.93207932 -1.13591019 34.93207932 -1.1328125 33.5546875 C-1.13376923 32.62907013 -1.13472595 31.70345276 -1.13571167 30.74978638 C-1.13639197 28.79461601 -1.13454811 26.83944337 -1.13037109 24.88427734 C-1.12500862 21.87983172 -1.13032737 18.87553478 -1.13671875 15.87109375 C-1.13605818 13.973958 -1.13477746 12.07682235 -1.1328125 10.1796875 C-1.13483673 9.27556122 -1.13686096 8.37143494 -1.13894653 7.43991089 C-1.1149579 1.1149579 -1.1149579 1.1149579 0 0 Z " fill="#FDFDFD" transform="translate(56,83)"/>
<path d="M0 0 C0.763125 0.0825 1.52625 0.165 2.3125 0.25 C2.96875 2.0078125 2.96875 2.0078125 3.3125 4.25 C-0.66592593 12.17476778 -8.21537799 18.28453176 -16.36132812 21.43847656 C-23.83329999 23.2614973 -31.67195619 22.65006441 -39.3125 22.5 C-41.09763619 22.47990223 -42.88279425 22.46165726 -44.66796875 22.4453125 C-49.0083596 22.40158086 -53.3476846 22.33273589 -57.6875 22.25 C-57.3575 20.27 -57.0275 18.29 -56.6875 16.25 C-55.74543701 16.2406543 -54.80337402 16.23130859 -53.83276367 16.22167969 C-50.28550117 16.17725997 -46.73937401 16.11546964 -43.19262695 16.04248047 C-41.66734578 16.01452314 -40.14192653 15.99318513 -38.61645508 15.97900391 C-23.75935344 16.17759845 -23.75935344 16.17759845 -11.02416992 9.61621094 C-10.58306885 9.16536133 -10.14196777 8.71451172 -9.6875 8.25 C-9.0275 8.25 -8.3675 8.25 -7.6875 8.25 C-7.419375 7.6725 -7.15125 7.095 -6.875 6.5 C-3.62228261 0.33695652 -3.62228261 0.33695652 0 0 Z " fill="#FDFDFD" transform="translate(140.6875,116.75)"/>
<path d="M0 0 C2.5625 0.1875 2.5625 0.1875 4.5625 2.1875 C4.80541992 4.67773438 4.80541992 4.67773438 4.79296875 7.78125 C4.79103516 8.89371094 4.78910156 10.00617188 4.78710938 11.15234375 C4.77486328 12.31894531 4.76261719 13.48554687 4.75 14.6875 C4.74935547 15.85410156 4.74871094 17.02070312 4.74804688 18.22265625 C4.70276365 26.9069727 4.70276365 26.9069727 3.5625 29.1875 C1.56295254 29.23004356 -0.43791636 29.22830783 -2.4375 29.1875 C-4.24029191 27.38470809 -3.56786605 24.64702299 -3.5703125 22.21875 C-3.57160156 21.00832031 -3.57289063 19.79789063 -3.57421875 18.55078125 C-3.57035156 17.27589844 -3.56648438 16.00101563 -3.5625 14.6875 C-3.56636719 13.41261719 -3.57023437 12.13773438 -3.57421875 10.82421875 C-3.57292969 9.61378906 -3.57164062 8.40335938 -3.5703125 7.15625 C-3.56918457 6.03669922 -3.56805664 4.91714844 -3.56689453 3.76367188 C-3.39697434 0.380657 -3.36098564 0.25853736 0 0 Z " fill="#FBFBFB" transform="translate(293.4375,98.8125)"/>
<path d="M0 0 C0.66 0.66 1.32 1.32 2 2 C1.625 5.625 1.625 5.625 1 9 C-4.41139241 10.32278481 -4.41139241 10.32278481 -6.9375 8.9375 C-8.52666796 6.03960549 -7.87523205 4.09697496 -7 1 C-4.48718205 -0.25640898 -2.78302919 -0.20872719 0 0 Z " fill="#5D7AEA" transform="translate(163,77)"/>
<path d="M0 0 C0.66 0.33 1.32 0.66 2 1 C1.19175781 1.81726563 0.38351563 2.63453125 -0.44921875 3.4765625 C-3.60379047 7.26204856 -3.77350871 10.58340325 -3.8125 15.375 C-3.83763672 16.11105469 -3.86277344 16.84710938 -3.88867188 17.60546875 C-3.94703593 19.40308149 -3.97650538 21.2015935 -4 23 C-3.34 23 -2.68 23 -2 23 C-2.33 24.32 -2.66 25.64 -3 27 C-6.52244722 22.40550363 -7.14627948 17.65327185 -7 12 C-5.95269023 6.93656021 -4.03429727 3.33872877 0 0 Z " fill="#657AD9" transform="translate(99,85)"/>
<path d="M0 0 C3 0.125 3 0.125 4 1.125 C4.125 3.625 4.125 3.625 4 6.125 C3 7.125 3 7.125 -0.5625 7.1875 C-1.696875 7.166875 -2.83125 7.14625 -4 7.125 C-4.04254356 5.12545254 -4.04080783 3.12458364 -4 1.125 C-3 0.125 -3 0.125 0 0 Z " fill="#FCFCFC" transform="translate(294,88.875)"/>
<path d="M0 0 C1.32 0 2.64 0 4 0 C4 0.66 4 1.32 4 2 C6.0825867 2.19561869 8.16611856 2.38119313 10.25 2.5625 C11.99023438 2.71912109 11.99023438 2.71912109 13.765625 2.87890625 C16.52405751 2.9821809 18.45509172 3.01190401 21 2 C21.33 1.34 21.66 0.68 22 0 C23.32 0.33 24.64 0.66 26 1 C21.2785032 4.93097096 15.84263147 6.3081974 9.7109375 5.81640625 C5.39946638 4.90405375 2.7438915 3.42986437 0 0 Z " fill="#6A7EDB" transform="translate(97,112)"/>
<path d="M0 0 C2 2 2 2 2.1953125 5.4765625 C2.18201493 6.85950968 2.15816232 8.24238654 2.125 9.625 C2.11597656 10.33140625 2.10695312 11.0378125 2.09765625 11.765625 C2.07407603 13.51056098 2.03820461 15.25532295 2 17 C1.01 16.67 0.02 16.34 -1 16 C-0.67 10.72 -0.34 5.44 0 0 Z " fill="#F4F4F4" transform="translate(179,109)"/>
</svg>
